<?xml version="1.0" encoding="UTF-8" standalone="no" ?>
<svg width="36" height="36" viewBox="0 0 36 36" version="1.1" xmlns="http://www.w3.org/2000/svg" xmlns:xlink="http://www.w3.org/1999/xlink">
    <title>SVG Icons for Renting.js (36 by 36 viewport)</title>
    <defs></defs>
    <symbol id="lock" viewBox="0 0 36 36">
        <g transform="translate(7.000000, 3.000000)">
            <path fill="#FFFFFF" class="main" d="M11.0411304,0.0553125 C6.12365217,0.0553125 2.12284058,3.97640625 2.12284058,8.79625 L2.12284058,13.7884375 C2.12284058,13.8451562 2.05142029,13.9407812 1.99530435,13.9590625 C1.51305797,14.1167187 1.12136232,14.2532812 0.762826087,14.38875 C0.33526087,14.5503125 0.0127536232,15.0146875 0.0127536232,15.4690625 L0.0127536232,26.9396875 C0.0127536232,27.3909375 0.333188406,27.8557812 0.758043478,28.0207812 C4.04528986,29.2975 7.50502899,29.9446875 11.0411304,29.9446875 C14.5772319,29.9446875 18.036971,29.2973437 21.3243768,28.020625 C21.7490725,27.855625 22.0693478,27.3909375 22.0693478,26.9396875 L22.0693478,15.4690625 C22.0693478,15.0146875 21.7468406,14.5503125 21.3191159,14.3885937 C20.9604203,14.253125 20.5687246,14.1165625 20.0867971,13.9589062 C20.0308406,13.940625 19.9594203,13.845 19.9594203,13.7882812 L19.9594203,8.79609375 C19.9592609,3.97640625 15.9586087,0.0553125 11.0411304,0.0553125 L11.0411304,0.0553125 Z M8.61204348,18.9626563 C8.61204348,17.646875 9.6996087,16.5820312 11.040971,16.5820312 C12.3823333,16.5820312 13.4698986,17.6467187 13.4698986,18.9626563 C13.4698986,19.8345313 12.9682029,20.5645312 12.2554348,20.9782812 L12.2554348,24.9142187 C12.2554348,25.5721875 11.7122899,26.1045312 11.040971,26.1045312 C10.3696522,26.1045312 9.82650725,25.5721875 9.82650725,24.9142187 L9.82650725,20.9782812 C9.11373913,20.5645312 8.61204348,19.8345313 8.61204348,18.9626563 L8.61204348,18.9626563 Z M16.8928116,9.56532452 L16.8928116,13.8726683 C14.9738696,13.4679808 13.0051884,13.2629808 11.0419275,13.2628245 C9.07962319,13.2628245 7.11126087,13.4678245 5.18928986,13.8721995 L5.18928986,9.56532452 C5.18928986,6.40282452 7.81430435,3.83001202 11.040971,3.83001202 C14.2676377,3.83001202 16.8928116,6.40282452 16.8928116,9.56532452 L16.8928116,9.56532452 Z"></path>
        </g>
    </symbol>
</svg>