<?xml version="1.0" encoding="UTF-8" standalone="no" ?>
<svg width="36" height="36" viewBox="0 0 36 36" version="1.1" xmlns="http://www.w3.org/2000/svg" xmlns:xlink="http://www.w3.org/1999/xlink">
    <title>SVG Icons for Renting.js (36 by 36 viewport)</title>
    <defs></defs>
    <symbol id="people" viewBox="0 0 36 36">
        <path d="M35.028,20.7 C35.028,17.404 33.194,14.529 30.495,13.037 C30.174,13.431 29.799,13.777 29.382,14.067 C31.875,15.239 33.61,17.767 33.61,20.699 C33.61,21.655 32.236,22.471 30.152,22.928 C29.131,19.766 26.914,17.137 24.03,15.585 C23.691,15.964 23.318,16.31 22.914,16.62 C26.717,18.456 29.354,22.34 29.354,26.838 C29.354,27.193 29.233,27.524 29.032,27.825 C28.051,29.29 25.802,29.041 25.005,27.469 L23.69,24.88 L24.236,30.448 C22.35,30.894 20.151,31.126 18,31.126 C16.103,31.126 13.697,30.943 11.971,30.595 L12.547,24.88 L11.299,27.404 C10.411,29.202 7.78,29.364 6.853,27.585 C6.724,27.337 6.652,27.086 6.647,26.839 C6.559,22.342 9.284,18.457 13.087,16.621 C12.683,16.311 12.31,15.965 11.971,15.586 C9.087,17.137 6.87,19.767 5.849,22.929 C3.764,22.472 2.391,21.656 2.391,20.7 C2.391,17.768 4.126,15.24 6.619,14.068 C6.202,13.777 5.826,13.431 5.506,13.038 C2.807,14.53 0.973,17.404 0.973,20.701 C0.973,22.553 2.913,23.721 5.487,24.3 C5.321,25.122 5.23,25.97 5.23,26.84 C5.23,30.782 11.644,32.546 18.001,32.546 C24.358,32.546 30.772,30.782 30.772,26.84 C30.772,25.97 30.681,25.122 30.515,24.3 C33.088,23.72 35.028,22.552 35.028,20.7 L35.028,20.7 Z"></path>
        <path d="M7.73,13.38 C8.752,13.891 9.761,13.955 10.669,13.759 C10.458,13.325 10.283,12.872 10.151,12.399 C10.01,12.419 9.87,12.443 9.723,12.443 C8.039,12.443 6.666,11.081 6.649,9.4 C6.637,8.232 7.371,7.179 8.405,6.635 C9.274,6.178 10.053,6.235 10.743,6.48 C10.966,6.046 11.227,5.636 11.521,5.252 C10.97,5.011 10.363,4.875 9.724,4.875 C7.065,4.875 4.937,7.197 5.264,9.921 C5.44,11.402 6.396,12.713 7.73,13.38 L7.73,13.38 Z"></path>
        <path d="M27.613,6.645 C28.642,7.197 29.371,8.25 29.352,9.417 C29.325,11.09 27.956,12.441 26.278,12.441 C26.131,12.441 25.991,12.418 25.85,12.397 C25.718,12.87 25.543,13.323 25.332,13.757 C26.025,13.906 26.772,13.904 27.551,13.669 C29.209,13.167 30.482,11.734 30.725,10.019 C31.117,7.252 28.97,4.872 26.278,4.872 C25.639,4.872 25.032,5.008 24.481,5.249 C24.775,5.634 25.036,6.043 25.259,6.477 C25.952,6.234 26.737,6.176 27.613,6.645 L27.613,6.645 Z"></path>
        <path d="M16.917,16.136 C21.28,16.857 25.017,13.12 24.296,8.757 C23.859,6.113 21.727,3.981 19.083,3.544 C14.72,2.823 10.983,6.56 11.704,10.923 C12.141,13.567 14.273,15.699 16.917,16.136 L16.917,16.136 Z M17.028,4.967 C20.521,4.301 23.541,7.323 22.873,10.816 C22.499,12.768 20.924,14.342 18.971,14.715 C15.478,15.381 12.458,12.359 13.126,8.866 C13.5,6.913 15.075,5.339 17.028,4.967 L17.028,4.967 Z" ></path>
    </symbol>
    <symbol id="rooms" viewBox="0 0 36 36">
        <path d="M8,32.8538462 L10.3846154,32.8538462 L10.3846154,4.23846154 L17.2692308,4.23846154 L17.2692308,1.85384615 L8,1.85384615 L8,32.8538462 L8,32.8538462 Z M11.5769231,32.8538462 L17.2692308,32.8538462 L17.2692308,31.6615385 L11.5769231,31.6615385 L11.5769231,32.8538462 L11.5769231,32.8538462 Z M18.4615385,0.661538462 L18.4615385,35.2384615 L20.9207692,35.2384615 L25.6153846,32.8538462 L25.6153846,5.43076923 L20.8461538,0.661538462 L18.4615385,0.661538462 L18.4615385,0.661538462 Z M21.5173077,18.5461538 C21.8876923,18.5461538 22.1880769,19.08 22.1880769,19.7388462 C22.1880769,20.3976923 21.8876923,20.9315385 21.5173077,20.9315385 C21.1469231,20.9315385 20.8461538,20.3973077 20.8461538,19.7384615 C20.8461538,19.0796154 21.1469231,18.5461538 21.5173077,18.5461538 L21.5173077,18.5461538 Z M23.6784615,1.85384615 L26.8076923,4.83461538 L26.8076923,32.8538462 L28,32.8538462 L28,1.85384615 L23.6784615,1.85384615 L23.6784615,1.85384615 Z"></path>
    </symbol>
    <symbol id="times" viewBox="0 0 36 36">
        <path d="M28.4393398,30.5606602 C29.0251263,31.1464466 29.9748737,31.1464466 30.5606602,30.5606602 C31.1464466,29.9748737 31.1464466,29.0251263 30.5606602,28.4393398 L7.56066017,5.43933983 C6.97487373,4.85355339 6.02512627,4.85355339 5.43933983,5.43933983 C4.85355339,6.02512627 4.85355339,6.97487373 5.43933983,7.56066017 L28.4393398,30.5606602 Z"></path>
        <path d="M5.43933983,28.4393398 C4.85355339,29.0251263 4.85355339,29.9748737 5.43933983,30.5606602 C6.02512627,31.1464466 6.97487373,31.1464466 7.56066017,30.5606602 L30.5606602,7.56066017 C31.1464466,6.97487373 31.1464466,6.02512627 30.5606602,5.43933983 C29.9748737,4.85355339 29.0251263,4.85355339 28.4393398,5.43933983 L5.43933983,28.4393398 Z"></path>
    </symbol>
    <symbol id="right-arrow" viewBox="0 0 36 36">
        <path d="M25.0310282,16.9689718 C24.970232,16.8694372 24.896776,16.7754556 24.8106602,16.6893398 L12.8106602,4.68933983 C12.2248737,4.10355339 11.2751263,4.10355339 10.6893398,4.68933983 C10.1035534,5.27512627 10.1035534,6.22487373 10.6893398,6.81066017 L22.1286797,18.25 L11.1893398,29.1893398 C10.6035534,29.7751263 10.6035534,30.7248737 11.1893398,31.3106602 C11.7751263,31.8964466 12.7248737,31.8964466 13.3106602,31.3106602 L25.3106602,19.3106602 C25.8964466,18.7248737 25.8964466,17.7751263 25.3106602,17.1893398 C25.2245444,17.103224 25.1305628,17.029768 25.0310282,16.9689718 Z" ></path>
    </symbol>
    <symbol id="left-arrow" viewBox="0 0 36 36">
        <path d="M25.0310282,16.9689718 C24.970232,16.8694372 24.896776,16.7754556 24.8106602,16.6893398 L12.8106602,4.68933983 C12.2248737,4.10355339 11.2751263,4.10355339 10.6893398,4.68933983 C10.1035534,5.27512627 10.1035534,6.22487373 10.6893398,6.81066017 L22.1286797,18.25 L11.1893398,29.1893398 C10.6035534,29.7751263 10.6035534,30.7248737 11.1893398,31.3106602 C11.7751263,31.8964466 12.7248737,31.8964466 13.3106602,31.3106602 L25.3106602,19.3106602 C25.8964466,18.7248737 25.8964466,17.7751263 25.3106602,17.1893398 C25.2245444,17.103224 25.1305628,17.029768 25.0310282,16.9689718 Z" transform="translate(18.000000, 18.000000) rotate(-180.000000) translate(-18.000000, -18.000000) "></path>
    </symbol>
    <symbol id="calendar" viewBox="0 0 36 36">
        <g transform="translate(4.000000, 2.000000)">
            <path d="M26.28125,1.13636364 L25.2635312,1.13636364 C25.2898125,1.05181818 25.3160938,0.967272727 25.3160938,0.873636364 C25.3160938,0.391818182 24.9255,0 24.4442812,0 C23.9630625,0 23.573375,0.391818182 23.573375,0.873636364 C23.573375,0.967272727 23.59875,1.05181818 23.6268437,1.13636364 L20.2918437,1.13636364 C20.318125,1.05181818 20.3444062,0.967272727 20.3444062,0.873636364 C20.3435,0.391818182 19.9538125,0 19.4716875,0 C18.991375,0 18.6007813,0.391818182 18.6007813,0.873636364 C18.6007813,0.967272727 18.6270625,1.05181818 18.65425,1.13636364 L15.3183438,1.13636364 C15.344625,1.05181818 15.3709063,0.967272727 15.3709063,0.873636364 C15.3709062,0.391818182 14.9812187,0 14.5,0 C14.0187813,0 13.6290938,0.391818182 13.6290938,0.873636364 C13.6290938,0.967272727 13.6544688,1.05181818 13.6816563,1.13636364 L10.34575,1.13636364 C10.3720313,1.05181818 10.3992188,0.967272727 10.3992188,0.873636364 C10.3992188,0.391818182 10.008625,0 9.5283125,0 C9.04709375,0 8.6565,0.391818182 8.6565,0.873636364 C8.6565,0.967272727 8.681875,1.05181818 8.7090625,1.13636364 L5.3740625,1.13636364 C5.40125,1.05181818 5.42753125,0.967272727 5.42753125,0.873636364 C5.42753125,0.390909091 5.03784375,0 4.556625,0 C4.07540625,0 3.6848125,0.391818182 3.6848125,0.873636364 C3.6848125,0.967272727 3.7101875,1.05181818 3.737375,1.13636364 L2.71875,1.13636364 C1.3430625,1.13636364 0.2265625,2.25727273 0.2265625,3.63636364 L0.2265625,27.2727273 C0.2265625,28.6518182 1.3430625,29.7727273 2.71875,29.7727273 L23.4673437,29.7727273 L28.7734375,24.4490909 L28.7734375,3.63636364 C28.7734375,2.25727273 27.6560313,1.13636364 26.28125,1.13636364 L26.28125,1.13636364 Z M2.71875,28.4090909 C2.09434375,28.4090909 1.5859375,27.8990909 1.5859375,27.2727273 L1.5859375,8.18181818 L27.4140625,8.18181818 L27.4140625,23.8845455 L27.1322187,24.1672727 L24.998,24.1672727 C24.0002188,24.1672727 23.1855,24.9854545 23.1855,25.9854545 L23.1855,28.1272727 L22.9036563,28.4090909 L2.71875,28.4090909 L2.71875,28.4090909 Z"></path>
            <path d="M14.242625,16.1136364 C14.242625,13.4290909 12.0069062,12.3818182 9.624375,12.3818182 C6.63828125,12.3818182 4.79496875,13.7572727 4.745125,17.1454545 L7.79646875,17.1454545 C7.78015625,16.0318182 8.15534375,14.9354545 9.46034375,14.9354545 C10.146375,14.9354545 10.8478125,15.3609091 10.8478125,16.0972727 C10.8478125,18.0118182 7.82909375,18.7981818 5.90421875,20.8118182 C4.98890625,21.7609091 4.46690625,22.7436364 4.53215625,24.0854545 L14.21,24.0854545 L14.21,21.3027273 L8.874,21.3027273 C9.4775625,20.8772727 10.3584375,20.4354545 11.1912812,19.9118182 C12.6929375,18.9781818 14.242625,18.1436364 14.242625,16.1136364 L14.242625,16.1136364 Z"></path>
            <path d="M24.8285312,20.0918182 C24.8285312,17.7836364 23.1148125,16.4409091 20.912625,16.4409091 C20.0471563,16.4409091 19.24875,16.5390909 18.5300937,17.0636364 L18.9052812,15.3281818 L23.8987188,15.3281818 L23.8987188,12.5454545 L16.52275,12.5454545 L15.380875,19.1090909 L18.5790312,19.2236364 C18.839125,18.7163636 19.4426875,18.5854545 19.9492812,18.5854545 C20.977875,18.5854545 21.434625,19.3054545 21.434625,20.2545455 C21.434625,21.1063636 20.7812187,21.7772727 19.7870625,21.7772727 C19.1662812,21.7772727 18.5146875,21.45 18.3180312,20.8445455 C18.3180312,20.8118182 18.2863125,20.7627273 18.2863125,20.73 L14.8751875,21.0736364 C15.5285937,23.2018182 17.1598438,24.3309091 19.6719687,24.3309091 C22.2991875,24.3309091 24.8285312,23.2827273 24.8285312,20.0918182 L24.8285312,20.0918182 Z"></path>
        </g>
    </symbol>
</svg>