<?xml version="1.0" encoding="UTF-8" standalone="no" ?>
<svg width="36" height="36" viewBox="0 0 36 36" version="1.1" xmlns="http://www.w3.org/2000/svg" xmlns:xlink="http://www.w3.org/1999/xlink">
    <title>SVG Icons for Renting.js services (36 by 36 viewport)</title>
    <defs></defs>
    <symbol id="barbecue" viewBox="0 0 36 36">
        <path d="M26.0105178,30.1068183 L21.3994561,17.1972013 C21.391948,17.1769852 21.3769317,17.1631531 21.3662058,17.1440009 C23.1102361,16.1853291 24.2739956,15.0085355 24.2739956,13.0539517 L12.0454043,13.0539517 C12.0454043,15.0447118 13.2520673,16.2470416 15.0475819,17.1950733 C15.0465093,17.1961373 15.0454367,17.1961373 15.0454367,17.1972013 L10.4333025,30.1068183 C10.3517857,30.3334521 10.4719157,30.5845581 10.7003772,30.6654228 C10.7497163,30.6813829 10.7990554,30.689895 10.8483945,30.689895 C11.0296621,30.689895 11.2002038,30.5781741 11.2634866,30.3983566 L13.4193912,24.3654276 C14.1358809,24.8644477 15.7726523,25.2262106 17.719402,25.274091 L17.719402,28.8864003 C17.719402,29.1289943 17.9167584,29.3237079 18.1602362,29.3237079 C18.403714,29.3237079 18.5999979,29.1289943 18.5999979,28.8864003 L18.5999979,25.274091 C20.6454258,25.2230186 22.3433347,24.8272074 22.9965417,24.287755 L25.1803336,30.3983566 C25.244689,30.5781741 25.4141581,30.689895 25.5954257,30.689895 C25.6447648,30.689895 25.6951765,30.6813829 25.743443,30.6654228 C25.9719045,30.5845581 26.0931071,30.3334521 26.0105178,30.1068183 L26.0105178,30.1068183 Z M13.9192179,22.9641282 L15.8520239,17.5547082 C16.4355125,17.766446 17.0651225,17.897319 17.7226198,17.9388154 C17.7226198,17.9451994 17.719402,17.9505195 17.719402,17.9590315 L17.719402,22.322531 C16.1394779,22.3608353 14.7654909,22.6055573 13.9192179,22.9641282 L13.9192179,22.9641282 Z M18.5999979,22.322531 L18.5999979,17.9590315 C18.5999979,17.9505195 18.5967801,17.9451994 18.5967801,17.9388154 C19.2950358,17.895191 19.9632589,17.7504858 20.5778526,17.5153399 L22.5492719,23.0343528 C21.7233781,22.6385416 20.2786002,22.3640273 18.5999979,22.322531 L18.5999979,22.322531 Z"></path>
        <path d="M20.143454,7.1646638 L20.1423814,6.19428791 C20.1220022,5.90168553 19.9128472,5.344145 19.2703662,5.344145 L17.1680911,5.344145 C16.5266826,5.344145 16.3175277,5.90168553 16.2960759,6.21024804 L16.2960759,7.12529548 C13.8312656,7.82647718 12.0454043,9.87894986 12.0454043,12.3027616 L24.2739956,12.3027616 C24.2739956,9.91831818 22.5449815,7.89776575 20.143454,7.1646638 L20.143454,7.1646638 Z M16.7369101,7.01995862 L16.7369101,6.22620817 C16.7390553,6.17939179 16.7798137,5.78038855 17.1680911,5.78038855 L19.2703662,5.78038855 C19.6457725,5.78038855 19.6961842,6.15279157 19.7026197,6.21024804 L19.7026197,7.04762285 C19.2092286,6.93377392 18.6933131,6.86567737 18.1602362,6.86567737 C17.6689903,6.86567737 17.1938332,6.92313383 16.7369101,7.01995862 L16.7369101,7.01995862 Z"></path>
    </symbol>
    <symbol id="disabled_people" viewBox="0 0 36 36">
        <path d="M17.789,7.37 C17.789,8.532 16.846,9.475 15.684,9.475 C14.521,9.475 13.578,8.532 13.578,7.37 C13.578,6.208 14.521,5.265 15.684,5.265 C16.846,5.265 17.789,6.208 17.789,7.37"></path>
        <path d="M15.684,10.358 C15.684,10.358 13.578,10.494 13.578,12.259 L13.578,18.846 C13.578,18.846 13.578,21.154 16.227,21.154 L22.881,21.154 L26.82,26.655 C26.82,26.655 28.653,27.062 28.857,25.433 C28.857,25.433 25.801,19.728 25.394,19.049 C24.986,18.371 24.443,17.827 22.745,17.827 C21.048,17.827 18.264,17.759 18.264,17.759 L18.196,15.926 L22.202,15.926 C22.202,15.926 23.085,15.722 23.085,14.839 C23.085,13.956 22.271,13.889 20.641,13.889 L17.789,13.889 L17.789,11.919 C17.789,11.919 17.517,10.358 15.684,10.358"></path>
        <path d="M22.271,15.654 C22.271,14.815 21.525,14.714 20.053,14.706 C20.841,15.031 21.565,15.479 22.203,16.024 C22.242,15.915 22.271,15.796 22.271,15.654"></path>
        <path d="M19.826,14.704 C19.907,14.704 19.977,14.705 20.053,14.706 C19.104,14.312 18.063,14.092 16.974,14.092 L16.974,14.704 L19.826,14.704"></path>
        <path d="M16.974,28.624 C13.417,28.624 10.523,25.73 10.523,22.173 C10.523,20.225 11.394,18.48 12.764,17.296 L12.764,15.289 C10.447,16.711 8.893,19.261 8.893,22.173 C8.893,26.629 12.518,30.254 16.974,30.254 C20.331,30.254 23.215,28.195 24.434,25.274 L23.253,23.626 C22.591,26.485 20.03,28.624 16.974,28.624"></path>
    </symbol>
    <symbol id="dishwasher" viewBox="0 0 36 36">
        <path d="M26.076,5.518 L9.924,5.518 C9.036,5.518 8.315,6.238 8.315,7.127 L8.315,9.491 L27.685,9.491 L27.685,7.127 C27.685,6.238 26.964,5.518 26.076,5.518"></path>
        <path d="M14.033,10.634 L13.684,12.592 L10.515,12.592 L10.166,10.634 L8.315,10.634 L8.315,28.536 C8.315,29.424 9.036,30.144 9.924,30.144 L26.076,30.144 C26.964,30.144 27.685,29.424 27.685,28.536 L27.685,10.634 L14.033,10.634"></path>
        <path d="M13.125,11.777 L13.125,10.634 L11.191,10.634 L11.191,11.777 L12.158,11.917 L13.125,11.777"></path>
    </symbol>
    <symbol id="garage" viewBox="0 0 36 36">
        <path d="M8.636,12.148 L27.36,12.148 L27.36,15.564 L8.636,15.564 L8.636,12.148 Z"></path>
        <path d="M7.519,12.107 L6.97,10.796 L18.127,6.126 L29.031,10.799 L28.471,12.104 L18.121,7.669 L7.519,12.107"></path>
        <path d="M7.925,11.438 L28.07,11.438 L28.07,29.874 L7.925,29.874 L7.925,11.438 Z M9.346,28.453 L26.649,28.453 L26.649,12.858 L9.346,12.858 L9.346,28.453 Z"></path>
        <path d="M8.636,13.248 L27.36,13.248 L27.36,13.958 L8.636,13.958 L8.636,13.248 Z"></path>
        <path d="M8.636,14.259 L27.36,14.259 L27.36,14.969 L8.636,14.969 L8.636,14.259 Z"></path>
        <path d="M8.636,15.019 L27.36,15.019 L27.36,15.729 L8.636,15.729 L8.636,15.019 Z"></path>
        <path d="M8.636,15.524 L27.36,15.524 L27.36,16.234 L8.636,16.234 L8.636,15.524 Z"></path>
        <path d="M24.702,22.315 L24.697,22.233 L24.644,22.17 C24.631,22.153 23.861,21.23 23.094,20.273 L24.253,20.273 L24.253,19.232 L22.553,19.232 L22.376,19.365 C22.04,18.932 21.761,18.556 21.629,18.341 C21.049,17.399 19.986,17.458 19.941,17.462 L17.997,17.461 L16.053,17.462 C16.009,17.458 14.945,17.399 14.366,18.341 C14.234,18.556 13.955,18.932 13.619,19.365 L13.443,19.232 L11.742,19.232 L11.742,20.273 L12.902,20.273 C12.134,21.23 11.365,22.153 11.351,22.17 L11.298,22.233 L11.293,22.315 C11.28,22.506 11.168,24.204 11.3,24.734 C11.443,25.305 11.741,25.702 12.189,25.921 C12.184,25.974 12.178,26.026 12.178,26.08 C12.178,26.63 12.489,27.077 12.874,27.077 L13.854,27.077 C14.227,27.077 14.529,26.655 14.547,26.127 L21.449,26.127 C21.447,26.144 21.445,26.159 21.445,26.175 C21.445,26.726 21.757,27.171 22.141,27.171 L23.121,27.171 C23.506,27.171 23.817,26.726 23.817,26.175 C23.817,26.09 23.808,26.008 23.794,25.929 C24.248,25.71 24.551,25.311 24.695,24.734 C24.828,24.204 24.715,22.506 24.702,22.315 L24.702,22.315 Z M14.797,18.606 C15.214,17.929 15.989,17.962 16.037,17.967 L19.959,17.967 C20.006,17.962 20.781,17.929 21.198,18.606 C21.367,18.879 21.747,19.384 22.184,19.941 L22.178,19.933 L21.871,20.466 L17.997,20.482 L14.123,20.466 L13.817,19.933 L13.811,19.941 C14.248,19.384 14.628,18.879 14.797,18.606 L14.797,18.606 Z M11.793,22.431 C11.907,22.292 12.187,21.954 12.535,21.53 L12.521,21.547 L13.538,21.525 L14.076,22.016 L14.092,23.091 L11.759,23.106 C11.769,22.846 11.781,22.603 11.793,22.431 L11.793,22.431 Z M19.688,23.851 L17.997,23.851 L16.307,23.851 C15.376,23.851 14.617,21.794 14.617,21.794 L21.379,21.794 C21.379,21.794 20.619,23.851 19.688,23.851 L19.688,23.851 Z M21.904,23.091 L21.92,22.016 L22.457,21.525 L23.475,21.547 L23.46,21.53 C23.808,21.954 24.088,22.292 24.203,22.431 C24.214,22.603 24.227,22.846 24.236,23.106 L21.904,23.091 L21.904,23.091 Z"></path>
    </symbol>
    <symbol id="garden_furniture" viewBox="0 0 36 36">
        <path d="M30.202,20.948 C29.92,20.652 29.45,20.642 29.154,20.924 C29.154,20.924 25.823,24.608 25.295,24.608 L12.934,24.608 C11.99,24.608 7.736,28.555 7.736,28.555 C7.41,28.802 7.346,29.268 7.593,29.593 C7.739,29.786 7.96,29.886 8.184,29.886 C8.34,29.886 8.498,29.837 8.631,29.735 C8.631,29.735 12.767,26.09 13.433,26.09 L20.776,26.09 L24.017,26.09 L24.017,29.516 C24.017,29.822 24.266,30.071 24.573,30.071 C24.879,30.071 25.128,29.822 25.128,29.516 L25.128,26.09 L25.888,26.09 C26.74,26.09 30.177,21.996 30.177,21.996 C30.473,21.713 30.483,21.244 30.202,20.948"></path>
            <path d="M20.746,29.819 L16.028,15.461 L16.732,15.229 L21.451,29.589 L20.746,29.819"></path>
            <path d="M26.321,11.579 L6.398,18.861 C6.494,19.09 6.598,19.315 6.713,19.535 L26.636,12.253 C26.54,12.024 26.436,11.799 26.321,11.579"></path>
            <path d="M26.197,11.332 C24.488,8.058 20.747,5.78 16.394,5.78 C15.062,5.78 13.792,6.003 12.614,6.392 C18.336,7.472 20.344,13.472 20.344,13.472"></path>
            <path d="M12.586,6.401 C8.503,7.761 5.594,11.231 5.594,15.31 C5.594,16.474 5.842,17.583 6.274,18.615 L11.671,16.642 C9.45,11.379 12.491,6.55 12.586,6.401"></path>
            <path d="M12.618,6.392 C12.77,6.342 12.928,6.303 13.083,6.258 L12.857,5.614 L11.914,5.946 L12.133,6.571 C12.285,6.514 12.435,6.453 12.59,6.401"></path>
    </symbol>
    <symbol id="garden" viewBox="0 0 36 36">
        <path d="M12.5980455,5.01718182 L12.9993636,5.01718182 C13.9284091,6.22113636 14.6402273,7.64354545 15.3999091,9.01809091 C16.8468636,8.19827273 17.1414091,6.22481818 18.2005455,5.01718182 L18.6006364,5.01718182 C19.6573182,6.161 20.1420909,7.87672727 21.2012273,9.01809091 C22.4002727,8.01663636 22.82,6.23463636 23.8018182,5.01718182 L24.4031818,5.01718182 C27.6947273,9.68695455 26.924,19.3799545 19.8009091,19.2216364 L19.8009091,26.8245909 C22.2971818,24.7517273 25.304,21.5215455 27.8039545,19.0215909 C28.6446364,18.1809091 29.3368182,16.7229091 30.6045909,16.8210909 C32.5620909,26.8491364 27.2516818,32.4062273 17.2003182,30.4254091 L17.2003182,19.4216818 C10.2625455,19.5922727 8.98986364,9.60963636 12.5980455,5.01718182"></path>
        <path d="M6.47518182,16.4860455 C10.0796818,19.5505455 13.3663182,22.9316818 16.4786818,26.4895455 L16.4786818,30.4904545 C7.72331818,31.4992727 4.71404545,24.6633636 6.47518182,16.4860455"></path>
    </symbol>
    <symbol id="golf" viewBox="0 0 36 36">
        <path d="M27.478,15.463 C21.876,13.618 19.042,15.463 19.042,15.463 C19.042,15.463 16.01,17.177 14.428,18.562 C13.673,19.222 12.435,19.852 11.106,20.402 L11.106,25.191 L9.182,25.191 L9.182,21.13 C8.362,21.416 7.574,21.663 6.915,21.856 C4.673,22.516 1.312,25.35 6.915,28.118 C12.517,30.886 28.137,27.261 30.575,23.702 C33.014,20.143 33.081,17.309 27.478,15.463"></path>
            <path d="M12.846,8.582 C11.265,8.582 10.54,8.093 10.54,8.093 L10.54,7.302 L9.749,7.302 L9.749,25.624 L10.54,25.624 L10.54,12.284 C10.54,12.284 12.333,11.583 14.565,10.427 C15.875,9.748 18.091,9.411 18.091,9.411 C16.839,8.752 14.428,8.582 12.846,8.582"></path>
    </symbol>
    <symbol id="heating" viewBox="0 0 36 36">
        <path d="M30.8288088,24.3143497 L30.8288088,24.0176323 C30.8288088,23.8228964 30.7011859,23.601451 30.5321718,23.5018977 L29.8398547,23.0964001 C29.6728117,22.9987894 29.4037688,22.9987894 29.2367258,23.0964001 L28.5449014,23.5018977 C28.3753946,23.601451 28.2477717,23.8228964 28.2477717,24.0176323 L28.2477717,24.3143497 C28.2477717,24.5469645 28.4399451,24.7363585 28.6764663,24.7363585 L28.7011039,24.7363585 C28.6789301,24.7999755 28.6646402,24.8665062 28.6646402,24.936922 L28.6646402,25.4385735 L28.2729021,25.4385735 C28.2645253,25.4385735 28.2576268,25.4429441 28.24925,25.4439153 C28.1802646,25.2006168 27.9550768,25.0204496 27.6870195,25.0204496 L27.0277168,25.0204496 L27.0277168,10.6376698 L27.6870195,10.6376698 C27.9550768,10.6376698 28.1797719,10.4575026 28.2487572,10.2142041 C28.2576268,10.2146897 28.2645253,10.2190603 28.2729021,10.2190603 L28.6646402,10.2190603 C28.8765238,10.2190603 29.0480016,10.0495769 29.0480016,9.84124345 L29.0480016,8.80248983 C29.0480016,8.59464198 28.8765238,8.42467294 28.6646402,8.42467294 L28.2729021,8.42467294 C28.2645253,8.42467294 28.2576268,8.42904357 28.2487572,8.43001482 C28.1797719,8.18623066 27.9550768,8.00703474 27.6870195,8.00703474 L27.0277168,8.00703474 L27.0277168,7.93370524 C27.0277168,7.42962564 26.8744708,6.92068978 26.5325006,6.92068978 C26.471892,6.92068978 26.4206458,6.86290031 26.4206458,6.79442707 C26.4206458,6.50693659 26.0781829,6.2908331 25.6218942,6.2908331 C25.1670837,6.2908331 24.8236353,6.50742221 24.8236353,6.79442707 C24.8236353,6.86241468 24.7718963,6.92068978 24.7112877,6.92068978 C24.3693175,6.92068978 24.2165643,7.42962564 24.2165643,7.93370524 L24.2165643,8.00703474 L23.6099861,8.00703474 L23.6099861,7.93370524 C23.6099861,7.42962564 23.4567401,6.92068978 23.1152627,6.92068978 C23.0546541,6.92068978 23.0034079,6.86290031 23.0034079,6.79442707 C23.0034079,6.50742221 22.6599595,6.2908331 22.2046562,6.2908331 C21.7488603,6.2908331 21.4059046,6.50790784 21.4059046,6.79442707 C21.4059046,6.86241468 21.3546584,6.92068978 21.2940498,6.92068978 C20.9515869,6.92068978 20.7983409,7.42962564 20.7983409,7.93370524 L20.7983409,8.00703474 L20.1597338,8.00703474 L20.1597338,7.93467649 C20.1597338,7.43059689 20.0069805,6.92166103 19.6650104,6.92166103 C19.6044018,6.92166103 19.5531556,6.86387156 19.5531556,6.79539832 C19.5531556,6.50839346 19.2101999,6.29180435 18.7544039,6.29180435 C18.2995935,6.29180435 17.956145,6.50839346 17.956145,6.79539832 C17.956145,6.86338594 17.9048988,6.92166103 17.8442902,6.92166103 C17.5018273,6.92166103 17.3495668,7.43059689 17.3495668,7.93467649 L17.3495668,8.00703474 L16.6557714,8.00703474 C16.6454236,7.52092329 16.4931632,7.04695249 16.1625263,7.04695249 C16.1019177,7.04695249 16.0506715,6.98964865 16.0506715,6.92117541 C16.0506715,6.63368492 15.7077158,6.41758144 15.2524126,6.41758144 C14.7971094,6.41758144 14.453661,6.63417055 14.453661,6.92117541 C14.453661,6.98916302 14.4024147,7.04695249 14.3418062,7.04695249 C14.0121548,7.04695249 13.8594016,7.52092329 13.848561,8.00703474 L13.229664,8.00703474 L13.229664,7.93467649 C13.229664,7.43059689 13.0769108,6.92166103 12.7349406,6.92166103 C12.674332,6.92166103 12.6230858,6.86387156 12.6230858,6.79539832 C12.6230858,6.50839346 12.2796374,6.29180435 11.8243341,6.29180435 C11.3690309,6.29180435 11.0255825,6.50839346 11.0255825,6.79539832 C11.0255825,6.86338594 10.974829,6.92166103 10.9137277,6.92166103 C10.5717575,6.92166103 10.4190043,7.43059689 10.4190043,7.93467649 L10.4190043,8.00703474 L9.84396224,8.00703474 L9.84396224,7.93419086 C9.84396224,7.43011126 9.69071624,6.92117541 9.34923883,6.92117541 C9.28863028,6.92117541 9.23738403,6.86338594 9.23738403,6.79539832 C9.23738403,6.50790784 8.89393561,6.29180435 8.43863239,6.29180435 C7.98283642,6.29180435 7.63988075,6.50839346 7.63988075,6.79539832 C7.63988075,6.86338594 7.5886345,6.92117541 7.52802595,6.92117541 C7.18605579,6.92117541 7.03330254,7.43011126 7.03330254,7.93419086 L7.03330254,8.00703474 L6.5326661,8.00703474 C6.27249283,8.00703474 6.05420352,8.1755469 5.97733414,8.40670478 C5.96649359,8.40573353 5.95663854,8.39990602 5.94579799,8.39990602 L5.55356708,8.39990602 C5.34266905,8.39990602 5.17020571,8.56987506 5.17020571,8.77820853 L5.17020571,9.81647653 C5.17020571,10.02481 5.34266905,10.1942934 5.55356708,10.1942934 L5.94579799,10.1942934 C5.95171102,10.1942934 5.95614579,10.1913797 5.96255157,10.1913797 C6.02316012,10.4463332 6.2552465,10.6376698 6.5326661,10.6376698 L7.03330254,10.6376698 L7.03330254,25.019964 L6.55385445,25.019964 C6.29368119,25.019964 6.07539187,25.1884762 5.9985225,25.4191484 C5.98768194,25.4186628 5.9778269,25.4128353 5.96698634,25.4128353 L5.57524818,25.4128353 C5.36435015,25.4128353 5.19188681,25.5823187 5.19188681,25.7906522 L5.19188681,26.8294058 C5.19188681,27.0377393 5.36435015,27.2072227 5.57524818,27.2072227 L5.96698634,27.2072227 C5.97289937,27.2072227 5.9778269,27.2043089 5.98373992,27.2038233 C6.04434847,27.4587769 6.27643485,27.6501134 6.55385445,27.6501134 L7.03379529,27.6501134 L7.03379529,27.9410033 C7.03379529,28.4450829 7.18654854,28.9540188 7.52802595,28.9540188 C7.5886345,28.9540188 7.6403735,29.0113226 7.6403735,29.0797958 C7.6403735,29.3668007 7.98283642,29.5829042 8.43912514,29.5829042 C8.89393561,29.5829042 9.23738403,29.3663151 9.23738403,29.0797958 C9.23738403,29.0118082 9.28912304,28.9540188 9.34973158,28.9540188 C9.69170175,28.9540188 9.84445499,28.4450829 9.84445499,27.9410033 L9.84445499,27.6501134 L10.419497,27.6501134 L10.419497,27.9410033 C10.419497,28.4450829 10.5722503,28.9540188 10.9142205,28.9540188 C10.974829,28.9540188 11.0260753,29.0113226 11.0260753,29.0797958 C11.0260753,29.3668007 11.3690309,29.5829042 11.8248269,29.5829042 C12.2801301,29.5829042 12.6230858,29.3663151 12.6230858,29.0797958 C12.6230858,29.0118082 12.6748248,28.9540188 12.7354333,28.9540188 C13.0778963,28.9540188 13.2301567,28.4450829 13.2301567,27.9410033 L13.2301567,27.6501134 L13.8475755,27.6501134 L13.8475755,28.067266 C13.8475755,28.5713456 14.0008215,29.0797958 14.3422989,29.0797958 C14.4029075,29.0797958 14.4546465,29.1375853 14.4546465,29.2055729 C14.4546465,29.4925778 14.7971094,29.7091669 15.2533981,29.7091669 C15.7082086,29.7091669 16.051657,29.4925778 16.051657,29.2055729 C16.051657,29.1375853 16.1029033,29.0797958 16.1635118,29.0797958 C16.5059747,29.0797958 16.6582352,28.5713456 16.6582352,28.067266 L16.6582352,27.6501134 L17.3505523,27.6501134 L17.3505523,27.9414889 C17.3505523,28.4455685 17.5028128,28.9540188 17.8452757,28.9540188 C17.9053915,28.9540188 17.9566378,29.0118082 17.9566378,29.0802815 C17.9566378,29.3672863 18.3000862,29.5833898 18.7553894,29.5833898 C19.2106927,29.5833898 19.5541411,29.3668007 19.5541411,29.0802815 C19.5541411,29.0122939 19.6048946,28.9540188 19.6655031,28.9540188 C20.007966,28.9540188 20.1607193,28.4455685 20.1607193,27.9414889 L20.1607193,27.6501134 L20.7993264,27.6501134 L20.7993264,27.9410033 C20.7993264,28.4450829 20.9525724,28.9540188 21.2945426,28.9540188 C21.3551511,28.9540188 21.4068901,29.0113226 21.4068901,29.0797958 C21.4068901,29.3668007 21.749353,29.5829042 22.205149,29.5829042 C22.6604522,29.5829042 23.0039006,29.3663151 23.0039006,29.0797958 C23.0039006,29.0118082 23.0556396,28.9540188 23.1162482,28.9540188 C23.4582184,28.9540188 23.6104788,28.4450829 23.6104788,27.9410033 L23.6104788,27.6501134 L24.2170571,27.6501134 L24.2170571,27.9410033 C24.2170571,28.4450829 24.3703031,28.9540188 24.7122732,28.9540188 C24.7728818,28.9540188 24.824128,29.0113226 24.824128,29.0797958 C24.824128,29.3668007 25.1675764,29.5829042 25.6228797,29.5829042 C26.0781829,29.5829042 26.4216313,29.3663151 26.4216313,29.0797958 C26.4216313,29.0118082 26.4723848,28.9540188 26.5329933,28.9540188 C26.8754563,28.9540188 27.0282095,28.4450829 27.0282095,27.9410033 L27.0282095,27.6501134 L27.6875122,27.6501134 C27.9560623,27.6501134 28.1807574,27.4704319 28.2502355,27.2271333 C28.2581195,27.2281046 28.2655108,27.2319896 28.2738876,27.2319896 L28.6656257,27.2319896 L28.6656257,28.6087388 C28.4350176,28.6116526 28.2482645,28.7961904 28.2482645,29.0234632 L28.2482645,29.2929856 C28.2482645,29.5226866 28.4374814,29.7091669 28.6705533,29.7091669 L30.4075055,29.7091669 C30.6410701,29.7091669 30.8297943,29.522201 30.8297943,29.2929856 L30.8297943,29.0234632 C30.8297943,28.7961904 30.6435339,28.6111669 30.4129258,28.6087388 L30.4129258,24.9364364 C30.4129258,24.8665062 30.3986359,24.7999755 30.3769548,24.7363585 L30.4010997,24.7363585 C30.6371281,24.7363585 30.8288088,24.5469645 30.8288088,24.3143497 L30.8288088,24.3143497 Z M28.2729021,8.80297545 L28.6646402,8.80297545 L28.6641475,9.84172908 L28.2729021,9.84172908 L28.2729021,8.80297545 L28.2729021,8.80297545 Z M27.027224,8.38485162 L27.686034,8.38485162 C27.7983815,8.38485162 27.8895407,8.4746924 27.8895407,8.58541509 L27.8895407,10.0592894 C27.8895407,10.1700121 27.7983815,10.2603385 27.686034,10.2603385 L27.027224,10.2603385 L27.027224,8.38485162 L27.027224,8.38485162 Z M5.94579799,9.81647653 L5.55455258,9.81647653 L5.55455258,8.77820853 L5.94629074,8.77820853 L5.94579799,9.81647653 L5.94579799,9.81647653 Z M5.96649359,26.8298914 L5.57524818,26.8298914 L5.57524818,25.7906522 L5.96698634,25.7906522 L5.96649359,26.8298914 L5.96649359,26.8298914 Z M7.03379529,27.2727822 L6.55385445,27.2727822 C6.44150691,27.2727822 6.35034771,27.1829414 6.35034771,27.0727043 L6.35034771,25.5978587 C6.35034771,25.487136 6.44150691,25.3972953 6.55385445,25.3972953 L7.03379529,25.3972953 L7.03379529,27.2727822 L7.03379529,27.2727822 Z M7.03379529,10.2598529 L6.5326661,10.2598529 C6.42031855,10.2598529 6.32915936,10.1700121 6.32915936,10.0588038 L6.32915936,8.58444383 C6.32915936,8.47420677 6.42031855,8.384366 6.5326661,8.384366 L7.03379529,8.384366 L7.03379529,10.2598529 L7.03379529,10.2598529 Z M9.46060087,8.00703474 L9.46060087,27.9419746 C9.46060087,28.3149352 9.36254314,28.5490068 9.34874608,28.5771731 C9.07576125,28.5771731 8.85402267,28.8029891 8.85451542,29.0749396 C8.84071835,29.1113615 8.69190713,29.2065442 8.43863239,29.2065442 C8.18535766,29.2065442 8.03654643,29.1108759 8.02324212,29.0802815 C8.02324212,28.808331 7.80988033,28.5859144 7.57779394,28.5859144 C7.57335917,28.5859144 7.5689244,28.5859144 7.56350413,28.5864 C7.51422888,28.5490068 7.41666391,28.3149352 7.41666391,27.9419746 L7.41666391,7.93370524 C7.41666391,7.56025898 7.51422888,7.32667297 7.52802595,7.29850667 C7.80150354,7.29850667 8.02324212,7.07220504 8.02225661,6.79976895 C8.03654643,6.76383264 8.1848649,6.66864998 8.43863239,6.66864998 C8.69141437,6.66864998 8.84071835,6.76431827 8.85402267,6.7949127 C8.85402267,7.07220504 9.08167428,7.29947792 9.3132679,7.28927978 C9.3630359,7.32667297 9.46060087,7.56025898 9.46060087,7.93370524 L9.46060087,8.00703474 L9.46060087,8.00703474 Z M9.84396224,25.3977809 L10.4190043,25.3977809 L10.4190043,27.2732678 L9.84396224,27.2732678 L9.84396224,25.3977809 Z M9.84396224,10.6376698 L10.4190043,10.6376698 L10.4190043,25.0204496 L9.84396224,25.0204496 L9.84396224,10.6376698 Z M9.84396224,8.384366 L10.4190043,8.384366 L10.4190043,10.2598529 L9.84396224,10.2598529 L9.84396224,8.384366 Z M12.8467954,7.93467649 L12.8467954,27.9414889 C12.8467954,28.3144496 12.7487377,28.5490068 12.7344478,28.5766875 C12.461463,28.5766875 12.2397244,28.8025035 12.2402172,29.0749396 C12.2264201,29.1108759 12.0776089,29.2060586 11.8243341,29.2060586 C11.5710594,29.2060586 11.4222482,29.1108759 11.4089439,29.0802815 C11.4089439,28.8078454 11.1955821,28.5854288 10.9634957,28.5854288 C10.9590609,28.5854288 10.9546262,28.5854288 10.9496986,28.5859144 C10.8999306,28.5485212 10.8023657,28.3144496 10.8023657,27.9414889 L10.8023657,7.68263669 L10.817641,7.68263669 C10.8457279,7.45730631 10.9033799,7.32035983 10.9142205,7.29947792 C11.1872053,7.29947792 11.4089439,7.07317629 11.4079584,6.80122583 C11.4222482,6.76528952 11.5710594,6.66962123 11.8243341,6.66962123 C12.0776089,6.66962123 12.2264201,6.76528952 12.2397244,6.79588395 C12.2397244,7.07317629 12.4599847,7.29996355 12.6989697,7.29025103 C12.7364188,7.31841733 12.8009694,7.45730631 12.8305346,7.68312232 L12.8467954,7.68312232 L12.8467954,7.93467649 L12.8467954,7.93467649 Z M13.229664,25.3977809 L13.8470828,25.3977809 L13.8470828,27.2732678 L13.229664,27.2732678 L13.229664,25.3977809 Z M13.229664,10.6376698 L13.8470828,10.6376698 L13.8470828,25.0204496 L13.229664,25.0204496 L13.229664,10.6376698 Z M13.229664,8.384366 L13.8470828,8.384366 L13.8470828,10.2598529 L13.229664,10.2598529 L13.229664,8.384366 Z M16.2743811,8.38485162 L16.2743811,28.0677516 C16.2743811,28.4407123 16.1763234,28.6752695 16.1625263,28.7029502 C15.8895415,28.7029502 15.6673101,28.9287662 15.6682956,29.2012023 C15.6544986,29.2371386 15.5051946,29.3323213 15.2524126,29.3323213 C14.9996306,29.3323213 14.8498339,29.2371386 14.8370223,29.2065442 C14.8370223,28.9341081 14.6236605,28.7116915 14.3915742,28.7116915 C14.3871394,28.7116915 14.3822119,28.7116915 14.3772843,28.7121771 C14.3280091,28.6747839 14.2299514,28.4407123 14.2299514,28.0677516 L14.2299514,8.384366 L14.2501542,7.80841378 C14.2777484,7.58551153 14.3324439,7.44516567 14.3422989,7.42476938 C14.614791,7.42476938 14.8370223,7.19846775 14.8365296,6.92651729 C14.8498339,6.89009536 14.9986451,6.7949127 15.2524126,6.7949127 C15.5051946,6.7949127 15.6544986,6.89058098 15.6673101,6.92117541 C15.6673101,7.19895338 15.8939762,7.42962564 16.1270481,7.41602812 C16.1640046,7.44322316 16.2743811,7.80841378 16.2743811,7.80841378 L16.2743811,8.38485162 L16.2743811,8.38485162 Z M16.6577425,25.3977809 L17.3495668,25.3977809 L17.3495668,27.2732678 L16.6577425,27.2732678 L16.6577425,25.3977809 Z M16.6577425,10.6376698 L17.3495668,10.6376698 L17.3495668,25.0204496 L16.6577425,25.0204496 L16.6577425,10.6376698 Z M16.6577425,8.384366 L17.3495668,8.384366 L17.3495668,10.2598529 L16.6577425,10.2598529 L16.6577425,8.384366 Z M19.7768652,8.00703474 L19.7768652,27.9419746 C19.7768652,28.3149352 19.6788074,28.5490068 19.6645176,28.5771731 C19.3920255,28.5771731 19.1697942,28.8029891 19.170287,29.0749396 C19.1564899,29.1113615 19.0071859,29.2065442 18.7539112,29.2065442 C18.5011292,29.2065442 18.3518252,29.1108759 18.3385209,29.0802815 C18.3385209,28.808331 18.1251591,28.5859144 17.8930727,28.5859144 C17.888638,28.5859144 17.8842032,28.5859144 17.8797684,28.5864 C17.8295077,28.5490068 17.7324354,28.3149352 17.7324354,27.9419746 L17.7324354,7.93467649 C17.7324354,7.56123024 17.8295077,7.32715859 17.8437975,7.29947792 C18.1167823,7.29947792 18.3385209,7.07317629 18.3380281,6.80122583 C18.352318,6.76480389 18.5011292,6.66962123 18.7544039,6.66962123 C19.0071859,6.66962123 19.1569826,6.76528952 19.1697942,6.79539832 C19.1697942,7.07317629 19.4107501,7.30336293 19.6290394,7.29025103 C19.6793002,7.32715859 19.7768652,7.56123024 19.7768652,7.93467649 L19.7768652,8.00703474 L19.7768652,8.00703474 Z M20.1597338,25.3977809 L20.7983409,25.3977809 L20.7983409,27.2732678 L20.1597338,27.2732678 L20.1597338,25.3977809 Z M20.1597338,10.6376698 L20.7983409,10.6376698 L20.7983409,25.0204496 L20.1597338,25.0204496 L20.1597338,10.6376698 Z M20.1597338,8.384366 L20.7983409,8.384366 L20.7983409,10.2598529 L20.1597338,10.2598529 L20.1597338,8.384366 Z M23.226132,8.00703474 L23.226132,27.9414889 C23.226132,28.3144496 23.128567,28.5490068 23.1147699,28.5766875 C22.8412923,28.5766875 22.6195538,28.8025035 22.6205393,29.0749396 C22.6062495,29.1108759 22.4574382,29.2060586 22.2041635,29.2060586 C21.9508888,29.2060586 21.8020775,29.1108759 21.7887732,29.0802815 C21.7887732,28.8078454 21.5749187,28.5854288 21.343325,28.5854288 C21.3383975,28.5854288 21.3339628,28.5854288 21.329528,28.5859144 C21.2792672,28.5485212 21.1817023,28.3144496 21.1817023,27.9414889 L21.1817023,7.93370524 C21.1817023,7.56025898 21.27976,7.32618734 21.2940498,7.29802104 C21.5670346,7.29802104 21.7887732,7.07220504 21.7882805,6.79976895 C21.8020775,6.76383264 21.950396,6.66864998 22.2041635,6.66864998 C22.4569455,6.66864998 22.6062495,6.76383264 22.6195538,6.79442707 C22.6195538,7.07220504 22.8403068,7.29413604 23.078799,7.28927978 C23.128567,7.32618734 23.226132,7.56025898 23.226132,7.93370524 L23.226132,8.00703474 L23.226132,8.00703474 Z M23.6094933,25.3977809 L24.2160716,25.3977809 L24.2160716,27.2732678 L23.6094933,27.2732678 L23.6094933,25.3977809 Z M23.6094933,10.6376698 L24.2160716,10.6376698 L24.2160716,25.0204496 L23.6094933,25.0204496 L23.6094933,10.6376698 Z M23.6094933,8.384366 L24.2160716,8.384366 L24.2160716,10.2598529 L23.6094933,10.2598529 L23.6094933,8.384366 Z M26.6438626,8.00703474 L26.6438626,27.9424602 C26.6438626,28.3154208 26.5458049,28.5494925 26.5315151,28.5776587 C26.259023,28.5776587 26.0372844,28.8029891 26.0372844,29.0749396 C26.0239801,29.1118471 25.8746761,29.2065442 25.6214014,29.2065442 C25.3681267,29.2065442 25.2193154,29.1113615 25.2060111,29.0807671 C25.2060111,28.808331 24.9926493,28.5864 24.760563,28.5864 L24.7467659,28.5864 C24.6965051,28.5490068 24.5989402,28.3154208 24.5989402,27.9424602 L24.5989402,7.93370524 C24.5989402,7.56025898 24.6969979,7.32618734 24.7112877,7.29802104 C24.9842725,7.29802104 25.2060111,7.07171941 25.2055184,6.79976895 C25.2193154,6.76383264 25.3681267,6.66816436 25.6214014,6.66816436 C25.8746761,6.66816436 26.0239801,6.76383264 26.0367917,6.79442707 C26.0367917,7.06686315 26.2501535,7.28927978 26.4822398,7.28927978 L26.4960369,7.28927978 C26.5458049,7.32618734 26.6433699,7.56025898 26.6433699,7.93370524 L26.6433699,8.00703474 L26.6438626,8.00703474 L26.6438626,8.00703474 Z M27.8895407,25.8163903 L27.8895407,27.0727043 C27.8895407,27.183427 27.7983815,27.2732678 27.686034,27.2732678 L27.027224,27.2732678 L27.027224,25.3982665 L27.686034,25.3982665 C27.7983815,25.3982665 27.8895407,25.4881073 27.8895407,25.5983444 L27.8895407,25.8163903 L27.8895407,25.8163903 Z M28.2729021,25.8163903 L28.6646402,25.8163903 L28.6641475,26.855144 L28.2729021,26.855144 L28.2729021,25.8163903 Z M30.40652,28.9855844 C30.4282011,28.9855844 30.4454474,29.0035526 30.4454474,29.0239489 L30.4454474,29.2929856 C30.4454474,29.3143531 30.4277083,29.3318356 30.40652,29.3318356 L28.6695678,29.3318356 C28.6478867,29.3318356 28.6306403,29.3138675 28.6306403,29.2929856 L28.6306403,29.0239489 C28.6306403,29.003067 28.6483794,28.9855844 28.6695678,28.9855844 L30.40652,28.9855844 L30.40652,28.9855844 Z M29.0475089,28.6077675 L29.0475089,24.936922 C29.0475089,24.8548512 29.0879146,24.7849211 29.1470448,24.7363585 L29.9290429,24.7363585 C29.9886659,24.7849211 30.0285789,24.8548512 30.0285789,24.936922 L30.0285789,28.6077675 L29.0475089,28.6077675 L29.0475089,28.6077675 Z M28.6759735,24.3590273 C28.6508432,24.3590273 28.6306403,24.3381454 28.6306403,24.3143497 L28.6306403,24.0176323 C28.6306403,23.9559578 28.6868141,23.8578614 28.7405241,23.8267814 L29.4323485,23.4207982 C29.4510731,23.4096288 29.4880295,23.3984594 29.5377975,23.3984594 C29.5875655,23.3984594 29.6245219,23.4096288 29.6432465,23.4207982 L30.3355636,23.8267814 C30.3892736,23.8578614 30.4454474,23.9559578 30.4454474,24.0176323 L30.4454474,24.3143497 C30.4454474,24.3381454 30.4252446,24.3590273 30.4001142,24.3590273 L28.6759735,24.3590273 L28.6759735,24.3590273 Z"></path>
        <path d="M12.7621161,10.6981992 L12.7621161,10.4461594 L12.7458553,10.4461594 C12.7552176,10.5209458 12.7621161,10.6054447 12.7621161,10.6981992"></path>
        <path d="M10.7176864,10.4461594 L10.7176864,10.6977136 C10.7176864,10.6049591 10.7240922,10.5209458 10.7329617,10.4461594 L10.7176864,10.4461594"></path>
    </symbol>
    <symbol id="internet" viewBox="0 0 36 36">
        <path d="M22.9854545,11.8418182 L22.0134545,19.4498182 C21.9916364,19.6789091 21.9730909,19.9090909 21.9567273,20.1381818 C21.9414545,20.3683636 21.9338182,20.6029091 21.9338182,20.8429091 C21.9338182,21.4418182 22.1192727,21.7418182 22.4912727,21.7418182 C23.1709091,21.7418182 23.7927273,21.1876364 24.3556364,20.0792727 C24.9294545,18.9610909 25.2152727,17.7425455 25.2152727,16.4247273 C25.2152727,14.2178182 24.516,12.4047273 23.1163636,10.9876364 C21.7265455,9.55963636 19.9570909,8.84618182 17.8112727,8.84618182 C15.4952727,8.84618182 13.548,9.68509091 11.9694545,11.3629091 C10.4007273,13.0614545 9.61636364,15.1298182 9.61636364,17.5701818 C9.61636364,20.0781818 10.4138182,22.1563636 12.0065455,23.8058182 C13.6003636,25.4552727 15.6076364,26.2789091 18.0294545,26.2789091 C20.5690909,26.2789091 22.9112727,25.6756364 25.056,24.4669091 L26.4741818,27.0087273 C26.4,27.048 26.3389091,27.0774545 26.2909091,27.0970909 C26.244,27.1167273 26.2090909,27.1352727 26.1872727,27.1549091 L25.8850909,27.3010909 C23.4098182,28.5174545 20.8974545,29.1250909 18.348,29.1250909 C15.3741818,29.1250909 12.8618182,28.3854545 10.812,26.904 C9.31854545,25.8392727 8.14581818,24.4843636 7.29490909,22.8392727 C6.432,21.1843636 6,19.4236364 6,17.5549091 C6,14.304 7.11709091,11.5647273 9.35127273,9.33927273 C11.5963636,7.11272727 14.3683636,6 17.6672727,6 C20.6389091,6 23.148,6.97418182 25.1923636,8.92145455 C27.2258182,10.8774545 28.2436364,13.3090909 28.2436364,16.2152727 C28.2436364,18.492 27.6447273,20.4436364 26.4469091,22.0701818 C25.2589091,23.7087273 23.8450909,24.5269091 22.2054545,24.5269091 C21.2705455,24.5269091 20.4665455,24.0425455 19.7945455,23.0738182 C18.6698182,24.0829091 17.6029091,24.5869091 16.5938182,24.5869091 C15.2912727,24.5869091 14.1981818,23.9978182 13.3156364,22.8196364 C12.4429091,21.6316364 12.0065455,20.1589091 12.0065455,18.4014545 C12.0065455,16.4541818 12.5389091,14.832 13.6003636,13.5338182 C14.6738182,12.2258182 15.9905455,11.5712727 17.5516364,11.5712727 C18.4123636,11.5712727 19.2305455,11.892 20.0050909,12.5301818 L20.1807273,11.8418182 L22.9854545,11.8418182 L22.9854545,11.8418182 Z M19.5752727,17.1436364 C19.5752727,16.3145455 19.4105455,15.6403636 19.0810909,15.1210909 C18.7418182,14.5821818 18.3272727,14.3127273 17.8385455,14.3127273 C17.2112727,14.3127273 16.6854545,14.6923636 16.2610909,15.4505455 C15.8367273,16.2098182 15.624,17.1490909 15.624,18.2672727 C15.624,19.1258182 15.7516364,19.8294545 16.0058182,20.3781818 C16.2709091,20.9269091 16.6058182,21.2018182 17.0105455,21.2018182 C17.6585455,21.2018182 18.2476364,20.7883636 18.7789091,19.9592727 C19.3101818,19.1301818 19.5752727,18.192 19.5752727,17.1436364 L19.5752727,17.1436364 Z"></path>
    </symbol>
    <symbol id="jacuzzi" viewBox="0 0 36 36">
        <path d="M8.166,16.604 L5.123,16.604 C5.123,17.433 4.672,20.071 7.009,22.86 C8.15,24.223 9.381,24.828 10.342,25.091 L10.224,25.091 C10.224,25.246 10.225,25.394 10.227,25.535 C10.234,26.219 10.241,26.758 10.037,26.965 C9.959,27.043 9.837,27.081 9.662,27.081 C9.426,27.081 9.257,27.029 9.176,26.931 C9.087,26.825 9.114,26.675 9.114,26.674 L8.672,26.581 C8.663,26.617 8.603,26.94 8.821,27.212 C8.993,27.425 9.275,27.533 9.662,27.533 C9.964,27.533 10.191,27.452 10.358,27.283 C10.695,26.942 10.689,26.35 10.679,25.53 C10.678,25.416 10.677,25.295 10.676,25.173 C11.5,25.347 12.059,25.272 12.059,25.272 L23.365,25.272 C23.365,25.272 24.39,25.27 25.573,25.046 C25.572,25.127 25.572,25.209 25.571,25.288 C25.564,26.181 25.558,26.886 25.934,27.265 C26.098,27.429 26.318,27.512 26.59,27.512 L26.593,27.512 C26.98,27.511 27.262,27.403 27.434,27.189 C27.651,26.916 27.589,26.592 27.58,26.556 L27.139,26.654 C27.139,26.656 27.164,26.801 27.08,26.907 C26.978,27.033 26.759,27.06 26.592,27.061 C26.391,27.044 26.305,26.996 26.255,26.946 C26.012,26.701 26.018,26.017 26.024,25.292 C26.025,25.18 26.025,25.065 26.026,24.95 C26.984,24.724 27.975,24.343 28.566,23.689 C29.998,22.106 29.344,18.906 29.772,18.036 C29.916,17.743 30.597,17.338 30.906,17.063 C31.242,16.763 31.204,16.604 31.204,16.604 L8.166,16.604"></path>
        <path d="M14.26,11.879 C13.814,11.879 13.45,11.516 13.45,11.068 C13.45,10.621 13.814,10.257 14.26,10.257 C14.707,10.257 15.071,10.621 15.071,11.068 C15.071,11.516 14.707,11.879 14.26,11.879"></path>
        <path d="M19.112,15.667 C18.499,15.667 18,15.167 18,14.554 C18,13.94 18.499,13.441 19.112,13.441 C19.726,13.441 20.225,13.94 20.225,14.554 C20.225,15.167 19.726,15.667 19.112,15.667"></path>
        <path d="M18.001,10.994 C17.554,10.994 17.19,10.63 17.19,10.183 C17.19,9.735 17.554,9.371 18.001,9.371 C18.447,9.371 18.81,9.735 18.81,10.183 C18.81,10.63 18.447,10.994 18.001,10.994"></path>
        <path d="M15.731,15.248 C15.457,15.248 15.234,15.024 15.234,14.75 C15.234,14.475 15.457,14.252 15.731,14.252 C16.006,14.252 16.229,14.475 16.229,14.75 C16.229,15.024 16.006,15.248 15.731,15.248"></path>
        <path d="M27.643,15.893 C26.905,15.893 26.306,15.292 26.306,14.555 C26.306,13.816 26.905,13.216 27.643,13.216 C28.381,13.216 28.981,13.816 28.981,14.555 C28.981,15.292 28.381,15.893 27.643,15.893"></path>
        <path d="M11.331,13.726 C10.842,13.726 10.444,13.328 10.444,12.839 C10.444,12.35 10.842,11.952 11.331,11.952 C11.819,11.952 12.217,12.35 12.217,12.839 C12.217,13.328 11.819,13.726 11.331,13.726"></path>
        <path d="M13.45,15.27 C13.045,15.27 12.715,14.94 12.715,14.535 C12.715,14.129 13.045,13.799 13.45,13.799 C13.856,13.799 14.186,14.129 14.186,14.535 C14.186,14.94 13.856,15.27 13.45,15.27"></path>
        <path d="M22.314,14.97 C21.825,14.97 21.428,14.572 21.428,14.083 C21.428,13.594 21.825,13.196 22.314,13.196 C22.803,13.196 23.2,13.594 23.2,14.083 C23.2,14.572 22.803,14.97 22.314,14.97"></path>
        <path d="M16.361,13.649 C15.914,13.649 15.551,13.286 15.551,12.839 C15.551,12.392 15.914,12.028 16.361,12.028 C16.809,12.028 17.172,12.392 17.172,12.839 C17.172,13.286 16.809,13.649 16.361,13.649"></path>
        <path d="M8.655,15.27 C8.25,15.27 7.92,14.94 7.92,14.535 C7.92,14.129 8.25,13.799 8.655,13.799 C9.06,13.799 9.391,14.129 9.391,14.535 C9.391,14.94 9.06,15.27 8.655,15.27"></path>
        <path d="M11.33,10.918 C10.925,10.918 10.595,10.588 10.595,10.183 C10.595,9.777 10.925,9.447 11.33,9.447 C11.735,9.447 12.065,9.777 12.065,10.183 C12.065,10.588 11.735,10.918 11.33,10.918"></path>
        <path d="M8.384,12.031 C7.771,12.031 7.272,11.532 7.272,10.919 C7.272,10.305 7.771,9.805 8.384,9.805 C8.997,9.805 9.496,10.305 9.496,10.919 C9.496,11.532 8.997,12.031 8.384,12.031"></path>
        <path d="M23.361,11.324 C22.915,11.324 22.552,10.96 22.552,10.513 C22.552,10.066 22.915,9.702 23.361,9.702 C23.809,9.702 24.173,10.066 24.173,10.513 C24.173,10.96 23.809,11.324 23.361,11.324"></path>
        <path d="M21.815,12.581 C21.541,12.581 21.318,12.357 21.318,12.083 C21.318,11.809 21.541,11.585 21.815,11.585 C22.09,11.585 22.314,11.809 22.314,12.083 C22.314,12.357 22.09,12.581 21.815,12.581"></path>
        <path d="M19.696,12.687 C19.291,12.687 18.961,12.357 18.961,11.952 C18.961,11.546 19.291,11.216 19.696,11.216 C20.102,11.216 20.432,11.546 20.432,11.952 C20.432,12.357 20.102,12.687 19.696,12.687"></path>
        <path d="M20.432,10.363 C20.026,10.363 19.696,10.033 19.696,9.627 C19.696,9.222 20.026,8.892 20.432,8.892 C20.837,8.892 21.167,9.222 21.167,9.627 C21.167,10.033 20.837,10.363 20.432,10.363"></path>
        <path d="M24.67,15.498 C24.396,15.498 24.173,15.274 24.173,15 C24.173,14.725 24.396,14.502 24.67,14.502 C24.944,14.502 25.168,14.725 25.168,15 C25.168,15.274 24.944,15.498 24.67,15.498"></path>
        <path d="M24.67,13.317 C24.265,13.317 23.935,12.987 23.935,12.581 C23.935,12.176 24.265,11.846 24.67,11.846 C25.075,11.846 25.405,12.176 25.405,12.581 C25.405,12.987 25.075,13.317 24.67,13.317"></path>
        <path d="M26.306,11.653 C25.9,11.653 25.57,11.323 25.57,10.918 C25.57,10.512 25.9,10.182 26.306,10.182 C26.711,10.182 27.041,10.512 27.041,10.918 C27.041,11.323 26.711,11.653 26.306,11.653"></path>
    </symbol>
    <symbol id="parking" viewBox="0 0 36 36">
        <path d="M17.4284286,29.5212 L11,29.5212 L11,6 L17.2280714,6 C20.3317857,6 22.6340714,6.624 24.1349286,7.8732 C25.9029286,9.3456 26.7857143,11.3928 26.7857143,14.0136 C26.7857143,16.8672 25.8458571,18.9948 23.9649286,20.3964 C22.6802143,21.3408 20.8357143,21.8136 18.4302143,21.8136 L17.4284286,21.8136 L17.4284286,29.5212 L17.4284286,29.5212 Z M17.4284286,16.8624 L17.7210714,16.8768 C18.5030714,16.8768 19.1235714,16.6404 19.5862143,16.1688 C20.0488571,15.696 20.2807857,15.0492 20.2807857,14.226 C20.2807857,13.4136 20.0537143,12.7536 19.602,12.246 C19.1502857,11.7276 18.5735,11.4684 17.8752857,11.4684 L17.4284286,11.4684 L17.4284286,16.8624 L17.4284286,16.8624 Z"></path>
    </symbol>
    <symbol id="pets" viewBox="0 0 36 36">
        <path d="M5.96118556,7.63133718 C5.96118556,7.63133718 6.14250325,7.79429861 6.0368433,7.96520937 C6.00162331,8.02217963 5.78899897,8.1665926 5.73421233,8.22356286 C5.49680355,8.462043 5.29852809,8.67402535 5.24895922,8.68859913 C5.15112593,8.72039648 4.7245728,8.70847248 4.7245728,8.70847248 C4.7245728,8.70847248 4.41933294,8.56538439 4.17670638,8.49781502 C3.93147094,8.42892076 3.89625096,8.41699675 3.89625096,8.41699675 C3.89625096,8.41699675 4.1832286,8.50443947 4.27975745,8.56538439 C4.37759073,8.62765421 4.54195066,8.72702093 4.54195066,8.72702093 C4.54195066,8.72702093 4.36585074,8.70184803 4.33454409,8.68329957 C4.31758632,8.67270046 4.18061972,8.59320708 4.02278201,8.52431281 C3.91581762,8.4752919 3.79711323,8.43157054 3.70188883,8.41699675 C3.4631756,8.37989984 3.40969341,8.3851994 3.40969341,8.3851994 C3.40969341,8.3851994 3.90799095,8.47264212 4.0788731,8.6157302 C4.24975524,8.75749339 4.23149302,8.74556939 4.23149302,8.74556939 C4.23149302,8.74556939 3.96929981,8.57068395 3.84146432,8.56008483 C3.71362882,8.54816083 3.53100668,8.56008483 3.53100668,8.56008483 C3.53100668,8.56008483 3.80493989,8.56008483 3.90799095,8.62765421 C4.01234646,8.69654847 4.13365974,8.77604185 4.13365974,8.77604185 C4.13365974,8.77604185 3.9392976,8.63957821 3.73841325,8.63427866 C3.5375289,8.62765421 3.1892424,8.70184803 3.1892424,8.70184803 L3.4214334,8.70847248 C3.4423045,8.70847248 3.45665338,8.70979737 3.46578449,8.71112226 C3.54144223,8.72569604 3.02488247,8.79061564 2.96487806,8.97212552 C2.96487806,8.97212552 3.13967353,8.80121475 3.33534011,8.84361122 C3.53100668,8.88865747 3.68101772,9.08871581 3.68101772,9.08871581 C3.46839338,9.05294379 3.30142457,9.18675765 3.1357602,9.29672349 C3.1357602,9.29672349 3.1357602,9.27817503 3.36664676,9.21723011 C3.47752449,9.18675765 3.54666001,9.17350875 3.58840221,9.16953408 L3.60014221,9.14568607 L3.60144665,9.14303629 C3.63014441,9.08606603 3.83624654,9.02512111 4.10757086,9.06884247 C4.15713973,9.0767918 4.20931748,9.08871581 4.26410412,9.10461449 C4.31889076,9.11918827 4.37498185,9.13906162 4.43107293,9.16158474 L4.43107293,9.16290963 L4.43368182,9.16290963 C4.61239063,9.23577856 4.71935502,9.35634352 4.73892168,9.5007565 C4.74283501,9.52990407 4.74283501,9.55905164 4.73892168,9.58819922 C4.73631279,9.61867168 4.72848613,9.64781925 4.71805058,9.67829171 L4.71805058,9.6796166 C4.66456838,9.83197891 4.51325289,9.96579277 4.36585074,10.022763 C4.33715298,10.034687 4.30845521,10.0439613 4.278453,10.0492608 C4.24975524,10.0545604 4.22105747,10.0558853 4.19366415,10.0545604 L4.19105527,10.0545604 C4.0997442,10.0479359 4.03582645,10.0280626 3.98495314,9.9883159 C3.9927798,10.0214381 3.99799758,10.0598599 3.99538869,10.1102057 C3.99147536,10.2638929 3.94973316,10.4003566 3.89364207,10.5050229 C3.88320652,10.5248962 3.87277097,10.5447696 3.86103097,10.563318 C3.84798654,10.5818665 3.83624654,10.59909 3.8232021,10.6136638 L3.8232021,10.6149887 C3.85189987,10.6560603 3.86885764,10.7382034 3.85320431,10.8945404 C3.76711102,11.7663178 3.04575358,12.5095809 3.57405333,13.456877 C3.67579995,13.6423616 3.81798433,13.6900576 3.81798433,13.6900576 C3.60014221,13.5125224 3.47882893,13.2144222 3.45926227,12.9335456 C3.41230229,12.2989235 3.62753553,11.8405117 3.91451317,11.1250712 C3.91451317,11.1250712 3.51926669,12.4314124 3.56753111,12.7109642 C3.61579553,12.989191 3.79319989,13.2064729 3.79319989,13.2064729 C3.74493547,13.1190302 3.69275772,13.0077394 3.67319106,12.9242714 C3.6536244,12.8408033 3.67579995,12.7666095 3.67319106,12.6579686 C3.67319106,12.6579686 3.70319327,12.8249047 3.74623992,12.9481194 C3.80624433,13.1150555 3.89103318,13.2568187 3.94581982,13.3177636 C3.98234425,13.3601601 3.8766843,13.1879244 3.84798654,13.0819333 C3.78667768,12.8553771 3.81928877,12.5824499 3.98234425,12.4075644 C3.98234425,12.4075644 4.08539531,13.4860246 4.02408645,13.7947239 C3.96277759,14.1047481 3.86624875,14.2478362 3.86624875,14.2478362 C4.22888414,13.7298043 4.11409308,13.217072 4.09713531,12.6115974 C4.09713531,12.6115974 4.28497522,13.7324541 4.1949686,13.9245631 C4.10365753,14.1166721 4.01234646,14.2160388 4.01234646,14.2160388 C4.01234646,14.2160388 4.29801966,14.0173054 4.29801966,13.8013484 C4.29801966,13.5840665 4.22888414,13.0421866 4.26801745,13.1124057 C4.28236633,13.1389035 4.28627967,13.2197218 4.29410633,13.3270379 C4.30715077,13.5191469 4.33063076,13.7947239 4.43498626,13.9934574 C4.60065063,14.3021567 4.64630617,14.3591269 4.64630617,14.3591269 C4.3854174,13.9166138 4.40889739,13.6821083 4.68152615,13.2316458 C4.68152615,13.2316458 4.82240608,13.444953 4.81588386,13.6052647 C4.81197053,13.6821083 4.78327277,13.7722008 4.75327056,13.8477195 C4.71935502,13.9338373 4.68152615,13.9987569 4.68152615,13.9987569 C4.87719273,13.8066479 4.87327939,13.7006567 4.89545494,13.4542273 C4.89545494,13.4542273 5.13286372,13.5151722 5.09633929,13.9126391 C5.07807708,14.1100477 5.1146015,14.4213967 5.03633487,14.6850498 C4.95806824,14.9526775 4.76501055,15.1699594 4.76501055,15.1699594 C4.87458384,15.0732424 4.96719935,14.9897744 5.05590153,14.8731841 C5.04546598,15.0679429 5.02981265,15.1514109 4.94241492,15.3448448 C5.0402482,15.1871829 5.11590595,15.1249131 5.16547481,14.9473779 C5.16547481,14.9473779 5.2215659,15.0692678 5.22026145,15.1898327 C5.22026145,15.2680012 5.1798237,15.3448448 5.14199482,15.3925408 C5.04416154,15.5170805 5.35461917,15.2746257 5.3167903,15.10239 C5.30244142,15.0268713 5.50071688,15.2891995 5.53071909,15.3435199 C5.63246571,15.5290045 5.39766582,15.4919076 5.48245467,15.6946157 C5.49158577,15.5780254 5.70551456,15.4455364 5.71464567,15.2335541 C5.77073675,15.4813085 5.74464788,15.5502027 5.71334123,15.7171388 C5.7720412,15.7184637 5.8255234,15.3859164 5.8255234,15.3859164 C5.85683005,15.6058481 5.87509226,15.7714593 5.85813449,15.991391 C5.95596778,15.7860331 5.90509447,15.702565 6.11380548,15.5290045 C5.95075,15.8085562 6.07336773,15.8125309 6.04858329,16.0523359 C6.09423883,15.9052731 6.10728327,15.8178304 6.10206549,15.6614935 C6.24424987,15.4667347 6.43600311,15.7568855 6.69558744,15.5965739 C6.52470529,15.7886829 6.42948089,15.9423701 6.34208316,16.1344791 C6.55601195,15.9741674 6.72298076,15.9463447 6.96169398,15.8430033 C7.08300726,15.7886829 6.86386069,15.9198469 6.70863188,16.1026817 C6.67471634,16.1411035 6.64471413,16.1808502 6.61601636,16.219272 C6.63949635,16.2285462 6.71776298,16.0960573 6.84168515,16.0695595 C7.01256729,16.0324626 7.23040941,16.098707 7.16779611,16.1291795 C7.08692059,16.1702511 6.80385628,16.2205969 6.71384965,16.2947907 C6.74906963,16.3067147 6.8312496,16.278892 6.89516734,16.2629934 C6.93430066,16.2523942 6.96952064,16.2470947 6.97995619,16.2603436 C7.04648283,16.3451365 6.73341631,16.4816002 6.63949635,16.54387 C6.79994294,16.4868997 6.95517176,16.4564273 7.1169228,16.3941574 C7.38433378,16.290816 7.50042929,16.2841916 7.56565148,16.2775671 C7.60348035,16.2735925 7.44694709,16.3173138 7.33085159,16.375609 C7.14431612,16.4696761 6.93169177,16.6087896 6.83646737,16.7108061 C6.81559627,16.7333292 6.94473621,16.6538358 7.07648504,16.5995153 C7.31780715,16.4988237 7.54999815,16.4868997 7.52521372,16.4948491 C7.32302492,16.5451949 7.15214278,16.6432367 6.98647841,16.7651265 C6.97343397,16.7730759 6.96691176,16.7797003 6.96038954,16.7863248 C6.96952064,16.7902994 7.15083834,16.6843083 7.28258716,16.6684096 C7.5186915,16.6405869 7.76784027,16.6909327 7.80045137,16.6882829 C7.45477375,16.7982488 7.38824712,16.7677763 7.15083834,16.8962906 C7.16388277,16.90424 7.32693825,16.8578688 7.44694709,16.8777422 C7.5813048,16.9015902 7.6765292,16.9956573 7.71435807,17.0036067 C7.4860804,17.0168556 7.38563823,17.0089062 7.19649387,17.1387454 C7.45868708,17.1162223 7.50173373,17.1493445 7.72609807,17.2897829 C7.45999153,17.2089646 7.35694046,17.2261881 7.11431391,17.288458 C7.20823387,17.3043566 7.36868046,17.2831584 7.44694709,17.2977322 C7.5604337,17.3162806 7.57478258,17.3692762 7.57478258,17.3692762 C7.55782481,17.4302212 7.73653362,17.4620185 7.79262471,17.4832167 C7.6882692,17.4593687 7.39607378,17.4143225 7.33606936,17.4010736 C7.32954714,17.4023985 7.4443382,17.4143225 7.56434703,17.4911661 C7.62565589,17.5309128 7.67913809,17.6223302 7.73783806,17.6673764 C7.63870033,17.6342542 7.5721737,17.6077564 7.51608261,17.5905328 C7.50173373,17.648828 7.67131143,17.6832751 7.65304921,17.7574689 C7.6882692,17.7932409 7.73131584,17.7839667 7.77436249,17.8303378 C7.72870696,17.7985405 7.49651595,17.8541858 7.45999153,17.8303378 C7.44694709,17.8846583 7.65957143,17.840937 7.64783144,17.8992321 C7.66609365,17.9270548 7.18084054,18.4570106 7.34389602,19.0240634 C7.4652093,19.4440535 7.75870917,19.8150226 7.75870917,19.8150226 C7.75870917,19.8150226 7.61130701,19.6904829 7.75870917,19.4440535 C7.90350243,19.1962991 8.12395344,19.7911745 8.05090459,19.9143893 C7.97785573,20.037604 7.56695592,19.9329377 7.36215824,19.9753342 C7.29693605,19.989908 7.91524243,20.0177307 8.10047345,20.3012571 C8.19830674,20.4536194 7.90741576,20.5940577 7.75218695,20.6364542 C7.72870696,20.6444035 7.88784911,20.7053484 8.10047345,20.7861667 C8.12134455,20.7927911 8.12786677,20.9001072 8.01046683,20.9292548 C7.83828024,20.9729761 7.51608261,20.9438286 7.54869371,20.9557526 C7.6882692,21.0087481 7.9739424,21.1253384 8.25439782,21.154486 C8.61442432,21.1929078 8.9679286,21.1385873 9.0005397,21.1756842 C9.0005397,21.1756842 8.90661974,21.7016654 8.73312871,21.88715 C8.6731243,21.9494198 8.19830674,22.5615188 8.20874229,22.5548944 C8.47745772,22.3601356 8.45397773,22.2872667 8.76443537,22.2011488 C8.72530205,22.4687766 8.55311546,22.5151477 8.36788444,22.7099065 C8.66268875,22.5880166 8.84922421,22.4912997 9.09706854,22.2885916 C9.34621732,22.0872083 9.23794848,22.9377875 7.83828024,23.1272467 C7.83828024,23.1272467 8.82965756,23.0808756 9.14663741,22.9258635 C9.46231282,22.7708514 9.72581047,22.6025904 9.72581047,22.6025904 C9.72581047,22.6025904 9.80538155,22.956336 9.6997216,23.352478 C9.61232386,23.6797257 9.12446186,25.2059986 9.68276383,25.802199 C9.68276383,25.802199 9.46361726,25.4564028 9.58493054,24.9357211 C9.70754826,24.4163644 9.82886154,24.3911915 9.82886154,24.3911915 C9.82886154,24.3911915 9.92669483,24.960894 9.95017481,25.4802508 C9.97495925,25.9996075 9.75581268,26.4447705 9.75581268,26.4447705 L10.2175858,25.6524864 C10.2175858,25.6524864 10.1784525,25.9466119 10.3128102,26.1824423 C10.4471679,26.4169478 10.1301881,26.5891834 10.1301881,27.0224223 C10.1301881,27.4543364 10.2397613,27.8133815 10.2397613,27.8133815 C10.2397613,27.8133815 10.2162814,27.6186227 10.2436747,27.5060071 C10.3558568,27.0754179 10.3258546,27.3072736 10.3375946,27.6053738 C10.3467257,27.867702 10.4223835,28.1644772 10.5436968,28.3936832 C10.5436968,28.3936832 9.99583035,28.444029 9.85103708,28.6030157 C9.70493937,28.7646523 9.57058166,28.7646523 9.44926838,28.9501368 C9.32665066,29.1356214 9.30317067,29.3833757 9.30317067,29.3833757 L9.35143509,29.5556114 L9.48579281,29.3701268 C9.48579281,29.3701268 9.4231795,29.5423625 9.4975328,29.6417292 C9.57058166,29.7410959 9.6671105,29.7901169 9.6671105,29.7901169 C9.6671105,29.7901169 9.58232165,30.137238 9.58232165,30.2472038 C9.58232165,30.3584945 9.7414638,30.6552698 9.87451707,30.6552698 C10.0088748,30.6552698 10.1067081,30.8911002 10.2397613,30.8778513 C10.3741191,30.8659273 10.5567412,30.6433458 10.5567412,30.6433458 C10.5567412,30.6433458 10.7732789,30.8924251 10.8332833,30.8924251 C10.8593722,30.8924251 10.7289278,30.8023326 10.72371,30.7294636 C10.7184922,30.6367214 10.7758878,30.5943249 10.7758878,30.5943249 C10.7758878,30.5943249 10.8619811,30.6579196 10.9063321,30.8023326 C11.0237321,31.1759515 10.9624232,30.9109735 11.014601,30.797033 C11.0354721,30.7506619 11.0915632,30.808957 11.164612,30.8036575 L11.3081009,30.7957081 C11.443763,30.7930583 11.3941941,30.8381046 11.3772364,30.9639691 C11.4815919,30.8301553 11.4972452,30.7639108 11.5298563,30.5943249 C11.5298563,30.5943249 11.7972673,30.9268722 11.931625,30.9268722 C12.0646783,30.9268722 12.210776,30.9030242 12.2838248,30.9030242 C12.3568737,30.9030242 12.6008047,30.7427125 12.6125447,30.6804427 C12.6242847,30.6194978 12.6738536,30.4817093 12.6738536,30.4817093 C12.8343001,30.4260639 12.8616935,30.4406377 13.0234445,30.4989328 C12.9334379,30.3823425 12.9099579,30.3253723 12.7703824,30.2856256 C12.7703824,30.2856256 13.0377934,30.2101069 13.0991022,30.088217 C13.1604111,29.9636774 13.5008709,29.9517534 13.5739198,29.8404627 C13.6469687,29.7304968 13.8778552,29.6298052 13.8778552,29.6298052 C13.8778552,29.6298052 13.5973998,29.6178812 13.4278221,29.4562447 C13.2569399,29.295933 13.6104442,29.295933 13.7317575,29.295933 C13.8543752,29.295933 13.9626441,29.3952997 13.9626441,29.3952997 C13.9626441,29.3952997 13.9756885,29.0733516 13.8661152,28.9501368 C13.8113286,28.8891919 13.6652309,28.8176478 13.7030597,28.7606776 C13.7408886,28.7037073 13.9626441,28.659986 14.0970018,28.7156313 C14.1804862,28.7500785 14.2796239,28.8573945 14.2913639,28.8308967 C14.3161483,28.7712767 14.1583106,28.5062988 14.1583106,28.5062988 C14.1635284,28.4956997 14.1687462,28.4864254 14.173964,28.4771512 L14.1452662,28.4824508 C14.1596151,28.4731765 14.173964,28.4665521 14.1883128,28.4572779 C14.3148439,28.2731182 14.4426794,28.299616 14.3409328,28.0359629 L14.4635505,27.9882669 C14.4152861,27.9763429 14.3604994,27.9683936 14.2965817,27.9577945 C14.485726,27.9021491 14.5874727,27.879626 14.7140037,27.8902251 L14.7544415,27.8743264 L14.7870526,27.8226557 C14.6761748,27.7643606 14.5992127,27.7670103 14.3891972,27.7988077 C14.626606,27.6623441 14.6631304,27.6305467 14.8770592,27.6848672 L14.9005392,27.6477703 C14.717917,27.4742097 14.6200838,27.4437373 14.3396283,27.3708683 C14.520946,27.3615941 14.7427015,27.4689102 14.9566303,27.5603276 L15.0883791,27.3562945 C15.0701169,27.3417208 15.0531591,27.3297967 15.0335925,27.3191976 C14.8679281,27.2238056 14.5992127,27.2317549 14.6553037,27.218506 C14.7283526,27.2012825 14.7987926,27.1920082 14.9631525,27.2052571 C15.0348969,27.2105567 15.1170769,27.2171811 15.1770813,27.2198309 L15.205779,27.1747847 C15.0231569,27.0754179 14.6631304,27.0118232 14.4231127,26.9879752 C14.7727037,26.9323298 14.9214103,26.9866503 15.2788279,27.0316966 C14.9957636,26.6262803 14.9109747,26.6567528 14.485726,26.4182727 C14.8835814,26.5136647 14.9435858,26.4686185 15.1796902,26.6037572 C15.1757768,26.5878585 15.1731679,26.5719599 15.1705591,26.5573861 C14.997068,26.3255304 14.9931547,26.2765095 14.9514125,26.1307716 C14.8731459,25.9850337 14.7818348,25.9187893 14.870537,25.6273135 C14.9592392,25.3384876 14.4322438,25.0099149 14.4322438,25.0099149 C14.5548616,24.792633 14.5613838,24.7078401 14.7974881,24.6376209 C14.5600793,24.5978743 14.5587749,24.6084734 14.370935,24.7634855 C14.5848638,24.336871 15.2123013,24.4229888 15.0166347,23.9831255 C15.0114169,23.9712014 15.1979524,24.0997157 15.2605657,24.3461452 C15.3023079,24.5183809 15.264479,24.6959161 15.1562102,24.9158478 C15.1353391,24.960894 15.3688345,24.6773676 15.4405789,24.4985075 C15.5031922,24.3421706 15.4901478,24.240154 15.5462389,24.2335296 C15.7588632,24.2057069 15.5384122,24.8721264 15.7353832,25.0470119 C15.7353832,25.0470119 15.6897277,24.6468952 15.8606098,24.4587608 C16.0523631,24.2481034 16.2297675,24.8125064 16.4515229,24.901274 C16.495874,24.9198224 16.2936852,24.6349712 16.3497763,24.5713765 C16.460654,24.4388875 16.901556,24.5064569 16.9159049,24.6694183 C16.9498205,25.0085901 16.7554583,25.3795592 16.8167672,25.2483951 C16.8363338,25.2059986 16.9511249,25.0629105 17.007216,24.9237971 C17.0841782,24.7316881 17.1024404,24.5369293 17.1050493,24.5501782 C17.1363559,24.8456286 17.1624448,25.0430372 17.2798447,25.3106649 C17.2850625,25.0668852 17.2889759,25.0390625 17.4455091,24.853578 C17.6255224,25.1185559 17.6203046,25.1331297 17.5603002,25.4497783 C17.7259645,25.3013907 17.7546623,25.2881418 17.7794467,25.0682101 C17.7924912,24.960894 18.0651199,25.1702266 18.1016444,25.1967244 C18.1290377,25.2165977 18.1277332,25.2748929 18.0781644,25.3265636 C17.9751133,25.4325547 17.7703156,25.5451704 17.9177178,25.4908499 C18.3820998,25.3199391 18.4225375,24.9661936 18.6455974,24.5157311 C18.6455974,24.5157311 18.7421263,25.3013907 18.7916952,25.176851 C18.8125663,25.1251803 18.8112618,24.9145229 18.9273573,24.7369877 C19.0878039,24.4905582 19.4687015,24.2957994 19.4687015,24.4971826 C19.4687015,24.5621022 19.2847749,24.8257553 19.3108638,24.8284051 C19.4321771,24.8443037 19.8509036,24.1407873 19.8509036,24.1407873 L20.0400479,24.3805924 L20.2409323,24.6349712 C20.24615,24.6429205 20.131359,24.4176893 20.2500634,24.2560527 C20.3687678,24.0957411 20.7235765,24.000349 20.7887987,24.0202224 C20.8488031,24.0387708 21.1214319,24.0029988 21.2192651,24.0944162 C21.3366651,24.2030571 21.2766607,24.4402124 21.2766607,24.4402124 L21.4475428,24.0202224 L21.7749582,23.6254052 C21.9954092,23.9023072 21.9967137,23.8546112 21.7319116,24.0891166 C22.2667335,23.7777676 22.4154401,23.4955661 22.6215423,22.9006906 C22.9906999,23.1033987 23.0141799,23.0411289 22.7493778,23.3776509 C23.2215864,23.02788 23.1994109,22.9536862 23.2972442,22.3627854 C23.5359574,22.5668184 23.5620463,22.5389957 23.4929108,22.8463701 C23.7381462,22.4926246 23.7772795,22.3482116 23.8333706,21.9176225 C24.0212105,22.1826004 24.1320882,22.211748 24.0042527,22.511173 L24.3942814,22.2647436 C24.5077681,22.4952744 24.5534236,22.535021 24.4921147,22.7841003 C24.6877813,22.691358 24.7203924,22.6860585 24.8077901,22.487325 C24.8077901,22.487325 25.2708677,22.6847336 24.9304079,22.883467 C24.5886436,23.0808756 24.1503504,23.2292632 23.7851062,23.3021322 C23.4198619,23.3776509 22.4454423,23.6982742 22.3971779,24.0453953 C22.3476091,24.3911915 22.5563201,24.6574943 22.5563201,24.6574943 C22.5563201,24.6574943 22.72068,24.457436 22.6724156,24.6309965 C22.6228467,24.804557 22.8837355,24.8668269 22.8837355,24.8668269 C22.8837355,24.8668269 23.614224,24.7621606 23.614224,24.8867002 C23.614224,25.0099149 23.9612061,25.3888334 24.010775,25.2656186 C24.1307838,24.960894 24.2129638,25.3106649 24.3955859,25.406057 C24.601688,25.513373 24.9199723,25.513373 25.13651,25.3557111 L25.4287054,25.1450537 C25.6256764,25.2550195 25.7756875,25.2523698 25.7574253,25.4868752 C26.2100673,25.2165977 26.3548605,24.6376209 26.5857471,24.16861 C26.5857471,24.16861 27.2197068,24.6150978 27.4375489,24.9357211 C27.6579999,25.2576693 27.9984598,25.033763 28.119773,25.7028322 C28.2423908,26.3705766 28.1693419,27.2860754 27.7806177,27.7564112 C27.6814799,27.8743264 27.3488467,28.3287636 27.3971112,28.2982911 C27.6397377,28.1353297 27.7219177,28.0187394 27.8927998,27.9538198 C28.063682,27.8902251 28.0962931,28.1273803 28.0962931,28.1273803 L27.3162356,28.8944914 L26.7253226,29.692075 C26.9953425,29.5688603 27.0005602,29.5781345 27.2705801,29.703999 C27.1192646,29.8086653 27.0749135,29.9583778 26.9249025,30.064369 C26.8466359,30.1186895 26.6653182,30.1306135 26.588356,30.184934 C26.5087849,30.2419042 26.7696737,30.1637357 26.8870736,30.3213976 C26.9483825,30.4048657 26.8048937,30.6459956 26.9001181,30.7029658 C26.9522958,30.7360881 27.1257868,30.509532 27.1727468,30.545304 C27.226229,30.5863756 27.1218735,30.7983579 27.1766602,30.8341299 C27.2510135,30.8844757 27.1753557,30.8367797 27.2575357,30.8805011 C27.3136268,30.9109735 27.3827623,30.7917334 27.4427667,30.8182312 C27.5327733,30.8593028 27.4792911,30.989142 27.57582,31.0222643 C27.6723488,31.0540616 27.7714865,31.0818843 27.8732332,31.1030825 C28.1862997,31.169327 28.8541749,31.1547532 29.0211437,31.0712852 C29.0628859,31.0500869 29.2559436,30.9281971 29.409868,30.9507202 C29.5481391,30.9705936 29.642059,31.1362048 29.7451101,31.0765847 C29.8442478,31.0196145 29.8494656,30.7639108 29.9186011,30.6751432 C30.0973099,30.4499119 30.2642787,30.353195 30.2642787,30.353195 C30.2642787,30.353195 30.7260518,29.3635024 30.896934,28.7461038 C31.0678161,28.1273803 31.3117471,25.5796175 31.3117471,25.5796175 C31.6678603,25.537221 31.663947,25.5517948 31.9261402,25.802199 C31.9261402,25.802199 31.5791581,24.4163644 31.3352271,24.2176309 C31.2295672,24.1315131 31.4604537,24.3315714 31.534807,24.1036904 C31.6313359,23.80824 31.5791581,23.0623271 31.3600115,22.7841003 C30.9699828,22.2885916 31.7252558,22.7589274 31.7252558,22.7589274 C31.7252558,22.7589274 31.2621783,21.3982657 30.9947673,21.1253384 C30.7260518,20.8550609 31.3352271,21.1014904 31.3352271,21.1014904 C31.3352271,21.1014904 31.2621783,20.7808671 31.3600115,20.1608188 C31.4578448,19.5434202 32.0657157,18.7749842 31.8230891,18.2556274 C31.7030803,18.0052233 31.5961159,17.6037817 31.5974203,17.3533776 C31.5974203,17.0857498 31.7565625,17.1188721 31.7565625,17.1188721 L31.5882892,16.7280296 C31.5165448,16.5650682 31.1434739,16.3186387 31.2504383,16.1662764 C31.3717515,15.9927159 31.2126094,15.3859164 30.8721495,15.0652931 C30.7717074,14.969901 30.5395164,14.8930574 30.4377698,14.7234716 C30.1977521,14.3273296 30.094701,13.7351039 29.9225144,13.456877 C29.6798879,13.0620599 29.6798879,12.7149388 29.6798879,12.7149388 C29.6798879,12.7149388 30.7025718,13.3217383 30.7025718,13.7669012 C30.7025718,14.2120642 30.7325741,13.1296293 30.3673298,12.8076811 C30.2081876,12.6685677 30.0112166,12.4976569 30.0660033,12.4777836 C30.1377477,12.4512858 30.4951653,12.5983485 30.4951653,12.5983485 C30.4951653,12.5983485 30.3921142,12.0604433 30.0999188,11.9372286 C29.9720833,11.8815832 29.8364211,11.7835414 29.8599011,11.727896 C30.0086077,11.3966736 30.2264498,11.7265711 30.2264498,11.7265711 C30.2264498,11.4867661 30.106441,11.4032981 29.87425,11.3622265 C29.93295,11.1409699 29.8912078,11.0773752 30.118181,11.0588267 C30.118181,11.0588267 30.1964476,10.9859578 30.0777433,10.7739755 C30.0451322,10.7143554 29.8233767,10.8349204 29.7803301,10.7660261 C29.7333701,10.6918323 30.0020855,10.3818081 29.9525166,10.2956903 C29.9355589,10.2665427 29.9172967,10.2373952 29.8990344,10.2095725 C29.7946789,10.2705174 29.6759745,10.3288125 29.5363991,10.3871077 C29.6498857,10.2943654 29.7451101,10.2069227 29.8338123,10.11948 C29.7216301,9.975067 29.5977079,9.87305049 29.4698724,9.80018156 C29.3720391,9.84125314 29.2676836,9.88099983 29.1555015,9.91014741 C29.0028815,9.9498941 29.154197,9.88232472 29.3642125,9.74718598 C29.0772348,9.61999657 28.7759083,9.62662102 28.5411084,9.65576859 C27.8797554,9.73791175 27.1153513,10.3539854 27.2562312,11.1065228 C27.2562312,11.1065228 26.0496207,11.37945 25.6843764,11.3542771 C25.3191321,11.3291042 24.2977526,11.5026648 23.858155,11.6272044 C23.4198619,11.7504192 22.7624222,12.0471944 21.8362671,12.1704092 C20.9114164,12.2949488 19.5469681,12.616897 19.1334594,12.4923574 C18.7186463,12.3691426 18.2555687,12.3943155 17.9385889,12.3691426 C17.6229135,12.3439697 17.4285513,12.0710425 17.2811492,12.0710425 C17.1350515,12.0710425 17.1350515,11.6523773 17.1350515,11.6523773 L17.5498646,11.428471 L17.5746491,11.0084809 L17.8172756,10.6375118 L17.7207468,10.2665427 L18.1342555,9.96844255 L18.1342555,9.67166727 C18.1342555,9.54845253 19.1569394,7.91618846 19.1569394,7.91618846 C19.1569394,7.91618846 19.108675,7.61941317 18.817784,7.47102553 C18.5242842,7.321313 17.9385889,6.95034389 17.6959623,6.95034389 C17.4520313,6.95034389 17.1846203,7.12522932 17.1846203,7.12522932 L17.5772579,6.49325695 C17.5772579,6.49325695 16.6158828,6.54492765 16.5180495,6.54492765 C15.3401368,6.54492765 15.020548,6.67211706 14.0852618,7.31071388 L13.9639485,6.97949146 C14.0526507,6.66814239 13.9430774,6.62177125 13.7565419,6.35811821 C13.7565419,6.35811821 13.8178508,6.19780656 13.7930664,6.08651583 C13.7695864,5.97522509 13.7474108,6.07591671 13.7591508,5.98847399 C13.7669775,5.93415351 13.8778552,5.84803569 13.9574263,5.70759738 C14.0030818,5.62545422 14.0174307,5.37505007 14.0226485,5.33397849 C14.0343885,5.22268776 13.8569841,5.03985299 13.7474108,4.95241027 C13.6521864,4.87689156 13.2960733,4.78414928 13.1408444,4.75765149 C13.1225822,4.81064708 13.1030156,4.86231777 13.08084,4.91398847 C13.0247489,5.03985299 13.0482289,4.93651159 13.0730134,4.74705237 C12.9086534,4.72055458 12.7834268,4.70200612 12.7834268,4.70200612 C12.7834268,4.70200612 12.757338,4.59866473 12.6595047,4.55626826 C12.569498,4.72585414 12.4912314,4.82654575 12.501667,4.79342351 C12.5238425,4.72320436 12.5734114,4.55759315 12.5342781,4.40390595 C12.5486269,4.5257958 12.5029714,4.62913719 12.466447,4.63443675 C12.3451337,4.65563499 12.2864337,4.56554249 12.1938182,4.55626826 C12.0203272,4.87821645 11.9068406,4.99745652 11.8429228,5.06767567 C11.8103117,5.10344769 12.1690338,4.74705237 11.9524961,4.37343349 C11.9277117,4.36813393 11.9733672,4.60926385 11.908145,4.69803145 C11.8364006,4.7947484 11.640734,4.871592 11.572903,4.83184531 C11.5507274,4.81859641 11.5898607,4.8331702 11.640734,4.80269774 C11.861185,4.66755899 11.6146452,4.23829474 11.4515897,4.14687735 C11.537683,4.499298 11.3094053,4.57614161 11.0915632,4.82919553 C11.2624453,4.53242025 11.2272253,4.24624408 11.3198408,4.1018311 C11.0798232,4.40390595 11.1920053,4.58144116 11.014601,4.60661407 C10.8385011,4.63311186 10.7680611,4.08195776 10.7680611,4.09123199 C10.8202389,4.59204028 10.944161,4.73645325 10.7758878,4.90338935 C10.6624012,5.01732986 10.3049835,4.88086623 9.97495925,5.09682324 C10.2449791,5.11272192 10.3141146,5.03720321 10.2423702,5.31807982 L9.44013727,5.36842563 L8.97575527,5.14451927 L8.07829791,5.42407099 C8.26744226,5.13524504 8.34701334,5.10609747 8.66529763,4.97360851 C8.3222289,5.00275608 8.23744005,4.99480674 7.98046462,5.22268776 C8.15786898,4.98950718 8.24918005,4.93253693 8.5126777,4.80402263 C8.2596156,4.86894222 8.1526512,4.87689156 7.97524684,5.06635078 C8.11873566,4.75102704 8.122649,4.77487506 8.37962443,4.54434425 C8.13308455,4.66093454 8.00916238,4.68345767 7.87610911,4.9232627 C8.01698905,4.63841142 8.03786015,4.63973631 8.25048449,4.40523084 C8.0156846,4.59601495 7.89176244,4.7311537 7.72479363,4.98420762 C7.80566914,4.679483 7.82784469,4.58276605 8.05090459,4.36680904 C7.82001803,4.49532334 7.77044916,4.51784646 7.65826699,4.7563266 C7.64261366,4.52844558 7.69870475,4.44365264 7.80045137,4.23432007 C7.58913147,4.47809977 7.53043149,4.52447091 7.42868487,4.83714487 C7.41955377,4.40920551 7.48216707,4.42112951 7.57478258,4.00246438 C7.41433599,4.37740815 7.31128493,4.40390595 7.26041162,4.80667241 C7.26041162,4.80667241 7.24345385,4.83979465 7.23432274,4.75765149 C7.21345164,4.5509687 7.21475608,4.35223525 7.27084717,4.14820224 C7.27867383,4.12302934 7.17301388,4.33236191 7.13909834,4.59601495 C7.11953168,4.73910303 7.12344502,4.89279024 7.11431391,4.86364266 C7.07518059,4.72850392 7.06083171,4.47280021 7.07387615,4.26081786 C7.08300726,4.1283289 7.12344502,3.96934214 7.10648725,4.00511416 C7.08039837,4.06605908 7.02691617,4.17205026 6.98256508,4.45822642 C6.95517176,4.63576164 6.96430287,4.82389597 6.93038733,4.99745652 C6.926474,5.01865475 6.80907405,4.85966799 6.7660274,4.65033543 C6.74254741,4.53242025 6.78168073,4.37608327 6.78428962,4.2820161 C6.78428962,4.25021875 6.72037187,4.44100286 6.71124076,4.66755899 C6.70471854,4.81329686 6.75559185,4.95373516 6.74906963,5.12597082 C6.74776519,5.15114372 6.61732081,4.9232627 6.53122751,4.67285855 C6.45165644,4.44497753 6.44904755,4.18529915 6.43469867,4.3204379 C6.41643646,4.48207444 6.43208978,4.63576164 6.44904755,4.74572748 C6.52470529,5.25051045 6.55992528,5.25845978 6.55992528,5.25845978 C6.33034316,4.96433428 6.206421,4.78679906 6.09162994,4.43305352 C6.10206549,4.8331702 6.19598545,4.99745652 6.34730093,5.35120206 C5.99640554,5.14584416 5.93118335,5.03190365 5.730299,4.67153366 C5.83204562,5.02130453 5.74856121,4.97360851 6.01988553,5.37505007 C5.75508343,5.19089041 5.70942789,5.24521089 5.29461475,5.11669659 C5.70290568,5.38167452 5.79030341,5.35782651 6.04727885,5.7817912 C5.69377457,5.71157205 5.54767686,5.64797735 5.19547702,5.68109959 C5.45636579,5.72482095 5.86074338,5.82551256 6.01205886,5.95005219 C6.04727885,5.98052465 5.86465671,5.95270197 5.72116789,5.93282862 C5.55941685,5.90898061 5.48767244,5.91295528 5.41331914,5.92620418 C5.35722806,5.9354784 5.62463904,5.94475263 5.78508564,6.0507438 C5.94031445,6.15143542 6.02118997,6.39256534 6.07988994,6.43496181 C5.78247675,6.39124045 5.38723027,6.06134292 5.08851263,6.05869314 C5.39505693,6.15805987 5.47854133,6.192507 5.68986124,6.43496181 C5.40157915,6.33029552 5.38592582,6.35281865 5.11068817,6.48795739 C5.41984136,6.46013471 5.44332135,6.48133295 5.69247012,6.67079217 C5.39636137,6.57142544 5.31418141,6.57275033 5.00894155,6.6416446 C5.30244142,6.70656419 5.39505693,6.74498599 5.62203016,6.94239455 C5.26722143,6.90132297 5.14851704,6.99274036 4.82501497,7.1543769 C5.16417037,7.12390444 5.31418141,7.07355863 5.60898572,7.24049473 C5.23200145,7.33058722 5.30765919,7.29746498 4.97893934,7.50812244 C4.96980824,7.513422 5.05851042,7.47102553 5.27896143,7.42200461 C5.62072571,7.3464859 5.88552781,7.42862906 5.76551898,7.4750002 C5.51767465,7.57171714 5.59855017,7.79827328 5.36114139,8.03012897 C5.66116347,7.8207964 5.67290347,7.61808828 5.96118556,7.63133718 L5.96118556,7.63133718 Z"></path>
        <path d="M3.56883555,9.33514529 C3.56753111,9.33779507 3.56753111,9.34044485 3.56753111,9.34309463 C3.56622667,9.34441952 3.56492222,9.3470693 3.56361778,9.34971908 C3.53231113,9.42921246 3.52187558,9.5007565 3.50361336,9.68624105 L3.51274447,9.68756594 L3.50230892,9.69551528 L3.50100447,9.7180384 C3.4957867,9.76175976 3.49056892,9.8081309 3.48665559,9.85582693 L3.48796004,9.85450204 C3.48796004,9.85450204 3.50622225,10.1208049 3.51274447,10.1579018 C3.51926669,10.1949987 3.61579553,10.3500108 3.61579553,10.3500108 C3.61579553,10.3500108 3.60796887,10.3606099 3.59622888,10.3818081 C3.60927331,10.4083059 3.62623108,10.4361286 3.64057997,10.4639513 C3.65623329,10.4454028 3.66405995,10.4374535 3.66405995,10.4374535 C3.66405995,10.4374535 3.70188883,10.5739171 3.76319769,10.5792167 C3.77232879,10.5805416 3.7814599,10.5818665 3.79189545,10.587166 C3.86363986,10.4838246 3.92755761,10.3261628 3.93147094,10.1393533 C3.9392976,9.93532031 3.8349421,9.93532031 3.79841767,9.8598016 C3.76319769,9.78560778 3.84668209,9.6676926 3.90146873,9.81740513 C3.95755982,9.96579277 4.01886868,10.0214381 4.1832286,10.0333621 C4.34758853,10.046611 4.59021508,9.8849745 4.65804616,9.69419039 C4.7245728,9.5007565 4.62804395,9.3338204 4.40107072,9.24107812 C4.00582424,9.0767918 3.66405995,9.13641184 3.63405775,9.19735676 C3.60535998,9.25432702 3.58448888,9.29672349 3.56883555,9.33514529 L3.56883555,9.33514529 Z"></path>
        <path d="M3.50361336,9.3722422 C3.40708452,9.39873999 3.22576682,9.4239129 3.19576462,9.44643602 C3.15271797,9.47690848 2.88139365,9.43318713 2.74964482,9.49545694 C2.61920044,9.55640186 2.62311377,9.58157477 2.62311377,9.58157477 C2.62311377,9.58157477 2.74834038,9.50340628 2.85660922,9.50340628 C2.9661825,9.50340628 3.04314469,9.52857918 3.04314469,9.52857918 C3.04314469,9.52857918 2.68964041,9.8849745 2.55006492,10.1459778 C2.14438288,10.8985151 2.12351178,11.4258212 2.26960949,12.2578519 C2.26960949,12.2578519 2.16003621,11.6762253 2.23308506,11.2111891 C2.30613392,10.7461528 2.51875826,10.2135471 2.75094927,9.99759012 C2.98183583,9.78030822 3.09793133,9.68094149 3.1775024,9.6676926 C3.23489793,9.65974326 3.38360453,9.67299215 3.46187116,9.68094149 C3.47752449,9.52460451 3.48665559,9.44113646 3.50361336,9.3722422 L3.50361336,9.3722422 Z"></path>
        <path d="M3.45665338,9.73923664 C3.31838234,9.86775094 2.95966028,10.2108974 2.75094927,10.4864744 C2.58267601,10.7090559 2.31135169,11.3993234 2.11698956,11.8855579 C2.00872072,12.1571603 1.78305194,12.6062979 1.95784741,12.2830248 C2.27743615,11.6987485 2.43918719,11.151569 2.76921148,10.6441363 C2.93748474,10.3871077 3.20489572,10.1473027 3.4423045,9.90219807 C3.44491339,9.84787759 3.45013117,9.79223222 3.45665338,9.74056153 L3.45665338,9.73923664 L3.45665338,9.73923664 Z"></path>
        <path d="M3.58057555,10.406981 C3.52448446,10.4970735 3.42273784,10.6865328 3.37838675,10.875992 C3.31707789,11.1422948 3.34055788,11.3158553 3.34055788,11.3158553 C3.34055788,11.3158553 3.39664897,10.8945404 3.49448226,10.7024314 C3.54796445,10.5977651 3.59361999,10.5262211 3.62492664,10.4851495 C3.60927331,10.4586517 3.59361999,10.4334788 3.58057555,10.406981 L3.58057555,10.406981 Z"></path>
    </symbol>
    <symbol id="pool" viewBox="0 0 36 36">
        <path d="M26.1516128,25.2526652 C25.0842588,25.2526652 23.471873,25.0755299 21.9128548,24.904072 C20.4435399,24.7416979 18.9242636,24.5736464 17.9999805,24.5736464 C17.0643425,24.5736464 15.5053244,24.7451043 13.9985385,24.9097494 C12.3838817,25.0868847 10.8589281,25.2526652 9.85061917,25.2526652 C7.82264657,25.2526652 5.65841602,24.5713754 5.56757738,24.5418529 C5.20990024,24.4283046 5.0123262,24.0456468 5.12700999,23.6891052 C5.24055828,23.331428 5.62321605,23.1349895 5.9797577,23.2474023 C6.00019639,23.2542152 8.03838834,23.8946276 9.85061917,23.8946276 C10.7851217,23.8946276 12.3441398,23.7243051 13.8509257,23.5596601 C15.4655825,23.3825248 16.9894006,23.2156088 17.9999805,23.2156088 C18.9992055,23.2156088 20.4866882,23.3802538 22.0627386,23.5539827 C23.5842858,23.7220342 25.1580652,23.8946276 26.1516128,23.8946276 C28.0569532,23.8946276 29.9918162,23.2564862 30.0111194,23.2508087 C30.3687966,23.131583 30.7514543,23.3246151 30.87068,23.6800213 C30.9887703,24.036563 30.7968736,24.4203562 30.4414675,24.5395819 C30.3528998,24.567969 28.2749659,25.2526652 26.1516128,25.2526652"></path>
        <path d="M26.1516128,22.0801258 C25.0842588,22.0801258 23.471873,21.9029904 21.9128548,21.730397 C20.4435399,21.5691585 18.9242636,21.401107 17.9999805,21.401107 C17.0643425,21.401107 15.5053244,21.5714294 13.9985385,21.7372099 C12.3838817,21.9132098 10.8589281,22.0801258 9.85061917,22.0801258 C7.82264657,22.0801258 5.65841602,21.3977005 5.56757738,21.368178 C5.20990024,21.2546297 5.0123262,20.8731074 5.12700999,20.5154302 C5.24055828,20.1588886 5.62321605,19.96245 5.9797577,20.0748629 C6.00019639,20.0816758 8.03838834,20.7220881 9.85061917,20.7220881 C10.7851217,20.7220881 12.3441398,20.5506302 13.8509257,20.3859852 C15.4655825,20.2088498 16.9894006,20.0430693 17.9999805,20.0430693 C18.9992055,20.0430693 20.4866882,20.2065789 22.0627386,20.3803078 C23.5842858,20.5483593 25.1580652,20.7220881 26.1516128,20.7220881 C28.0569532,20.7220881 29.9918162,20.0839467 30.0111194,20.0771338 C30.3687966,19.9601791 30.7514543,20.1509402 30.87068,20.5063464 C30.9887703,20.862888 30.7968736,21.2478168 30.4414675,21.365907 C30.3528998,21.3954296 28.2749659,22.0801258 26.1516128,22.0801258"></path>
        <path d="M26.1516128,28.4263401 C25.0842588,28.4263401 23.471873,28.2480693 21.9128548,28.0766114 C20.4435399,27.9153728 18.9242636,27.7473213 17.9999805,27.7473213 C17.0643425,27.7473213 15.5053244,27.9176438 13.9985385,28.0834243 C12.3838817,28.2594241 10.8589281,28.4263401 9.85061917,28.4263401 C7.82264657,28.4263401 5.65841602,27.7439149 5.56757738,27.7155278 C5.20990024,27.6019795 5.0123262,27.2193217 5.12700999,26.8616446 C5.24055828,26.5039675 5.62321605,26.3086644 5.9797577,26.4210772 C6.00019639,26.4267546 8.03838834,27.0683025 9.85061917,27.0683025 C10.7851217,27.0683025 12.3441398,26.8979801 13.8509257,26.733335 C15.4655825,26.5561997 16.9894006,26.3881482 17.9999805,26.3881482 C18.9992055,26.3881482 20.4866882,26.5527932 22.0627386,26.7276576 C23.5842858,26.8945736 25.1580652,27.0683025 26.1516128,27.0683025 C28.0569532,27.0683025 29.9918162,26.4301611 30.0111194,26.4233482 C30.3687966,26.3063934 30.7514543,26.4982901 30.87068,26.8525607 C30.9887703,27.2091024 30.7968736,27.5940311 30.4414675,27.7121214 C30.3528998,27.7416439 28.2749659,28.4263401 26.1516128,28.4263401"></path>
        <path d="M15.7290145,13.4629455 L20.2709464,13.4629455 L20.2709464,14.5984285 L15.7290145,14.5984285 L15.7290145,13.4629455 Z"></path>
        <path d="M15.7290145,15.7339114 L20.2709464,15.7339114 L20.2709464,16.8693944 L15.7290145,16.8693944 L15.7290145,15.7339114 Z"></path>
        <path d="M20.2709464,19.0563346 L20.2709464,18.0048774 L15.7290145,18.0048774 L15.7290145,19.0540637 C16.6044719,18.9700379 17.39931,18.9075864 17.9999805,18.9075864 C18.6040574,18.9075864 19.39776,18.9711734 20.2709464,19.0563346"></path>
        <path d="M21.4064294,8.47022683 C21.4064294,7.93541435 21.2133973,7.50165985 20.8386879,7.50165985 C20.4639785,7.50165985 20.2709464,7.93541435 20.2709464,8.47022683 L20.2709464,19.0563346 C20.6377074,19.0926701 21.0146878,19.1312765 21.4064294,19.1732894 L21.4064294,8.47022683"></path>
        <path d="M15.7290145,8.47022683 C15.7290145,7.93541435 15.5359824,7.50165985 15.161273,7.50165985 C14.7865637,7.50165985 14.5935316,7.93541435 14.5935316,8.47022683 L14.5935316,19.1698829 C14.9852732,19.1278701 15.363389,19.0903991 15.7290145,19.0540637 L15.7290145,8.47022683"></path>
        <path d="M30.2268612,12.3274625 L5.77423528,12.3274625 C5.3995259,12.3274625 5.09521646,12.0242886 5.09521646,11.759721 C5.09521646,11.494018 5.3995259,11.1919795 5.77423528,11.1919795 L30.2268612,11.1919795 C30.6015706,11.1919795 30.90588,11.494018 30.90588,11.759721 C30.90588,12.0242886 30.6015706,12.3274625 30.2268612,12.3274625"></path>
    </symbol>
    <symbol id="sea" viewBox="0 0 36 36">
        <path d="M11.636,23.648 C8.329,23.648 5.526,25.601 5.526,25.601 C6.786,25.16 9.715,25.034 11.604,25.223 C13.516,25.414 18.186,27.994 21.305,27.994 C24.422,27.994 28.107,24.341 28.107,24.341 C27.32,25.034 24.737,26.168 21.336,26.168 C17.935,26.168 14.943,23.648 11.636,23.648"></path>
        <path d="M11.636,26.671 C8.329,26.671 5.526,28.624 5.526,28.624 C6.786,28.183 9.715,28.057 11.604,28.246 C13.516,28.437 18.186,31.018 21.305,31.018 C24.422,31.018 28.107,27.364 28.107,27.364 C27.32,28.057 24.737,29.191 21.336,29.191 C17.935,29.191 14.943,26.671 11.636,26.671"></path>
        <path d="M31.005,13.948 C31.068,13.129 30.563,11.68 29.241,11.428 C27.918,11.176 26.281,11.933 26.281,11.933 C26.281,11.933 24.202,9.665 22.627,9.665 C21.053,9.665 19.541,11.302 19.541,11.302 C23.336,11.05 23.179,12.594 23.179,12.594 C22.706,12.531 21.478,12.515 20.344,13.476 C19.21,14.436 18.816,17.208 18.816,17.208 C18.816,17.208 19.21,17.003 20.549,15.79 C21.887,14.578 22.974,14.83 23.352,15.743 C23.729,16.656 23.399,17.822 23.399,17.822 L20.346,25.086 C20.673,25.13 21.002,25.16 21.336,25.16 C21.798,25.16 22.245,25.137 22.675,25.099 C23.251,23.606 25.632,17.466 26.171,16.609 C26.785,15.633 27.761,15.822 28.627,16.578 C29.493,17.334 29.619,19.821 29.619,19.821 C29.619,19.821 30.643,19.128 30.643,16.688 C30.643,14.247 28.501,13.05 28.501,13.05 C30.185,12.719 31.005,13.948 31.005,13.948"></path>
        <path d="M12.36,14.294 C13.787,14.294 14.943,13.138 14.943,11.711 C14.943,10.286 13.787,9.129 12.36,9.129 C10.935,9.129 9.778,10.286 9.778,11.711 C9.778,13.138 10.935,14.294 12.36,14.294"></path>
        <path d="M12.108,5.822 L12.612,5.822 L12.612,8.593 L12.108,8.593 L12.108,5.822 Z"></path>
        <path d="M15.478,11.46 L18.25,11.46 L18.25,11.964 L15.478,11.964 L15.478,11.46 Z"></path>
        <path d="M12.108,14.83 L12.612,14.83 L12.612,17.602 L12.108,17.602 L12.108,14.83 Z"></path>
        <path d="M6.471,11.46 L9.243,11.46 L9.243,11.964 L6.471,11.964 L6.471,11.46 Z"></path>
        <path d="M10.334,9.329 L7.799,6.793 L7.443,7.15 L9.978,9.686 L10.334,9.329"></path>
        <path d="M17.278,7.151 L16.922,6.794 L14.387,9.329 L14.743,9.686 L17.278,7.151"></path>
        <path d="M14.387,14.094 L16.921,16.63 L17.278,16.273 L14.743,13.738 L14.387,14.094"></path>
        <path d="M7.798,16.629 L10.334,14.094 L9.978,13.738 L7.442,16.273 L7.798,16.629"></path>
    </symbol>
    <symbol id="terrace" viewBox="0 0 36 36">
        <path d="M27.7144245,5.38973334 L8.28750752,5.38973334 C6.95444872,5.38973334 5.8744779,6.42871198 5.8744779,7.70816914 L5.8744779,19.8518703 L7.8045152,19.8518703 L7.8045152,7.70816914 C7.8045152,7.4528348 8.02089576,7.24392489 8.28750752,7.24392489 L27.7144245,7.24392489 C27.9800702,7.24392489 28.1983828,7.4528348 28.1983828,7.70816914 L28.1983828,19.8518703 L30.1255221,19.8518703 L30.1255221,7.70816914 C30.1255221,6.42871198 29.0455513,5.38973334 27.7144245,5.38973334 L27.7144245,5.38973334 Z M5.8744779,20.6587268 L30.1255221,20.6587268 L30.1255221,21.6122845 L5.8744779,21.6122845 L5.8744779,20.6587268 L5.8744779,20.6587268 Z M5.8744779,29.656709 L30.1255221,29.656709 L30.1255221,30.6102667 L5.8744779,30.6102667 L5.8744779,29.656709 L5.8744779,29.656709 Z M6.70812264,25.0551199 L6.70812264,21.613213 L6.24734797,21.613213 L6.24734797,25.0551199 C6.24734797,25.0551199 5.96334849,25.6344968 5.96334849,26.1795195 L5.96334849,29.656709 L6.99115614,29.656709 L6.99115614,26.1795195 C6.99115614,25.6344968 6.70812264,25.0551199 6.70812264,25.0551199 L6.70812264,25.0551199 Z M9.63698805,25.0551199 L9.63698805,21.613213 L9.17621338,21.613213 L9.17621338,25.0551199 C9.17621338,25.0551199 8.8922139,25.6344968 8.8922139,26.1795195 L8.8922139,29.656709 L9.92098753,29.656709 L9.92098753,26.1795195 C9.92098753,25.6344968 9.63698805,25.0551199 9.63698805,25.0551199 L9.63698805,25.0551199 Z M15.3865286,25.0551199 L15.3865286,21.613213 L14.9257539,21.613213 L14.9257539,25.0551199 C14.9257539,25.0551199 14.6417544,25.6344968 14.6417544,26.1795195 L14.6417544,29.656709 L15.6695621,29.656709 L15.6695621,26.1795195 C15.6695621,25.6344968 15.3865286,25.0551199 15.3865286,25.0551199 L15.3865286,25.0551199 Z M12.6286425,25.0551199 L12.6286425,21.613213 L12.1669018,21.613213 L12.1669018,25.0551199 C12.1669018,25.0551199 11.8838683,25.6344968 11.8838683,26.1795195 L11.8838683,29.656709 L12.9116759,29.656709 L12.9116759,26.1795195 C12.9116759,25.6344968 12.6286425,25.0551199 12.6286425,25.0551199 L12.6286425,25.0551199 Z M18.2303873,25.0551199 L18.2303873,21.613213 L17.7705786,21.613213 L17.7705786,25.0551199 C17.7705786,25.0551199 17.4856132,25.6344968 17.4856132,26.1795195 L17.4856132,29.656709 L18.5153528,29.656709 L18.5153528,26.1795195 C18.5153528,25.6344968 18.2303873,25.0551199 18.2303873,25.0551199 L18.2303873,25.0551199 Z M21.2278376,25.0551199 L21.2278376,21.613213 L20.767063,21.613213 L20.767063,25.0551199 C20.767063,25.0551199 20.4830635,25.6344968 20.4830635,26.1795195 L20.4830635,29.656709 L21.5118371,29.656709 L21.5118371,26.1795195 C21.5118371,25.6344968 21.2278376,25.0551199 21.2278376,25.0551199 L21.2278376,25.0551199 Z M24.1885805,25.0551199 L24.1885805,21.613213 L23.7278059,21.613213 L23.7278059,25.0551199 C23.7278059,25.0551199 23.4438064,25.6344968 23.4438064,26.1795195 L23.4438064,29.656709 L24.47258,29.656709 L24.47258,26.1795195 C24.47258,25.6344968 24.1885805,25.0551199 24.1885805,25.0551199 L24.1885805,25.0551199 Z M26.9773782,25.0551199 L26.9773782,21.613213 L26.5166035,21.613213 L26.5166035,25.0551199 C26.5166035,25.0551199 26.231638,25.6344968 26.231638,26.1795195 L26.231638,29.656709 L27.2613777,29.656709 L27.2613777,26.1795195 C27.2613777,25.6344968 26.9773782,25.0551199 26.9773782,25.0551199 L26.9773782,25.0551199 Z M29.753618,25.0551199 L29.753618,21.613213 L29.2928433,21.613213 L29.2928433,25.0551199 C29.2928433,25.0551199 29.0088439,25.6344968 29.0088439,26.1795195 L29.0088439,29.656709 L30.0376175,29.656709 L30.0376175,26.1795195 C30.0376175,25.6344968 29.753618,25.0551199 29.753618,25.0551199 L29.753618,25.0551199 Z M27.2613777,19.8518703 L27.2613777,8.6004466 C27.2613777,8.30982969 27.0160176,8.0749221 26.7136644,8.0749221 L9.24093435,8.0749221 C8.93858116,8.0749221 8.69322106,8.30982969 8.69322106,8.6004466 L8.69322106,19.8518703 L27.2613777,19.8518703 L27.2613777,19.8518703 Z"></path>
    </symbol>
    <symbol id="air" viewBox="0 0 36 36">
        <path d="M18,31.407 C10.6078827,31.407 4.59197374,25.3931436 4.59197374,18 C4.59197374,10.6068564 10.6078827,4.593 18,4.593 C25.3921173,4.593 31.4080263,10.6068564 31.4080263,18 C31.4080263,25.3931436 25.3921173,31.407 18,31.407 L18,31.407 Z M18,5.69827702 C11.2174783,5.69827702 5.69930328,11.2174783 5.69930328,18 C5.69930328,24.7825217 11.2174783,30.301723 18,30.301723 C24.7825217,30.301723 30.301723,24.7825217 30.301723,18 C30.301723,11.2174783 24.7825217,5.69827702 18,5.69827702 L18,5.69827702 Z"></path>
        <path d="M19.105277,18 C19.105277,18.6106219 18.6106219,19.1063033 18,19.1063033 C17.3893781,19.1063033 16.894723,18.6106219 16.894723,18 C16.894723,17.3893781 17.3893781,16.8936967 18,16.8936967 C18.6106219,16.8936967 19.105277,17.3893781 19.105277,18"></path>
        <path d="M19.105277,8.04840179 C19.105277,8.04840179 17.0332675,7.77131284 15.0279645,9.29222329 C13.0236878,10.8131337 14.2675093,13.6455985 14.5445982,14.1987502 C14.8206609,14.7519018 16.5078247,16.4801158 16.5078247,16.4801158 C16.5078247,16.4801158 18.2770889,15.166509 19.728214,13.0236878 C21.1793391,10.8818928 21.9397943,8.67031254 19.105277,8.04840179"></path>
        <path d="M8.04840179,16.8936967 C8.04840179,16.8936967 7.77131284,18.9677588 9.29222329,20.9720355 C10.8121075,22.9763122 13.6466248,21.7314645 14.1987502,21.4554018 C14.7519018,21.1793391 16.4801158,19.4921753 16.4801158,19.4921753 C16.4801158,19.4921753 15.166509,17.7229111 13.0236878,16.271786 C10.8818928,14.8206609 8.67031254,14.0612319 8.04840179,16.8936967"></path>
        <path d="M15.9351742,27.7976599 C15.9351742,27.7976599 17.9722911,28.2738424 20.114086,26.9551043 C22.2569072,25.6363661 21.2922272,22.6951183 21.070556,22.1183628 C20.8488849,21.540581 19.3372107,19.6584287 19.3372107,19.6584287 C19.3372107,19.6584287 17.4509534,20.7934671 15.797656,22.7854287 C14.1464111,24.7763641 13.1755736,26.9048177 15.9351742,27.7976599"></path>
        <path d="M27.4784945,21.2285994 C27.4784945,21.2285994 28.195847,19.2643466 27.1449615,16.9788759 C26.094076,14.6944315 23.0573864,15.2968434 22.4590795,15.4477029 C21.8587201,15.5975362 19.8082619,16.8721454 19.8082619,16.8721454 C19.8082619,16.8721454 20.7072616,18.8825796 22.4857622,20.7616532 C24.2632365,22.641753 26.2603294,23.8609444 27.4784945,21.2285994"></path>
    </symbol>
    <symbol id="tv" viewBox="0 0 36 36">
        <path d="M10.01532,32.335197 C10.01532,32.6893485 10.30286,32.9769318 10.6575,32.9769318 L11.42222,32.9769318 C11.77686,32.9769318 12.0644,32.6893485 12.0644,32.335197 L12.0644,31.7431136 L10.0151,31.7431136 L10.0151,32.335197 L10.01532,32.335197 Z"></path>
        <path d="M24.41102,32.335197 C24.41102,32.6893485 24.69856,32.9769318 25.0532,32.9769318 L25.81814,32.9769318 C26.17278,32.9769318 26.46032,32.6893485 26.46032,32.335197 L26.46032,31.7431136 L24.41102,31.7431136 L24.41102,32.335197 L24.41102,32.335197 Z"></path>
        <path d="M21.67532,11.1421288 L21.6729,11.1421288 C19.53538,11.1421288 17.71642,12.0391515 17.03882,13.2920833 L26.3072,13.2920833 C25.77766,12.3128939 24.55094,11.5509848 23.01974,11.2647197 L27.1861,7.10409848 C27.3885,6.90175758 27.3885,6.5739697 27.1861,6.37140909 C26.98348,6.16928788 26.65502,6.16928788 26.4524,6.37140909 L22.40902,10.4094394 L16.33724,4.34580303 C16.13462,4.14346212 15.80616,4.14346212 15.60354,4.34580303 C15.40092,4.54814394 15.40092,4.87593182 15.60354,5.07849242 L21.67532,11.1421288 L21.67532,11.1421288 Z"></path>
        <path d="M27.76492,13.785303 L8.23508,13.785303 C7.55308,13.785303 7,14.3378409 7,15.0191212 L7,30.0162955 C7,30.6977955 7.55308,31.2496742 8.23508,31.2496742 L27.7647,31.2496742 C28.44692,31.2496742 28.99978,30.6975758 28.99978,30.0162955 L28.99978,15.0191212 C29,14.3378409 28.44714,13.785303 27.76492,13.785303 L27.76492,13.785303 Z M24.3976,30.4460227 C24.0566,30.4460227 23.78006,30.1696439 23.78006,29.8291136 C23.78006,29.4883636 24.0566,29.2122045 24.3976,29.2122045 C24.73882,29.2122045 25.01536,29.4883636 25.01536,29.8291136 C25.01514,30.1696439 24.7386,30.4460227 24.3976,30.4460227 L24.3976,30.4460227 Z M26.09798,30.4460227 C25.75698,30.4460227 25.48044,30.1696439 25.48044,29.8291136 C25.48044,29.4883636 25.75698,29.2122045 26.09798,29.2122045 C26.43898,29.2122045 26.71552,29.4883636 26.71552,29.8291136 C26.71552,30.1696439 26.43898,30.4460227 26.09798,30.4460227 L26.09798,30.4460227 Z M27.17928,26.5174015 C27.17928,27.5818333 26.31974,28.4443636 25.25912,28.4443636 L10.74088,28.4443636 C9.68048,28.4443636 8.82072,27.5816136 8.82072,26.5174015 L8.82072,17.530697 C8.82072,16.4667045 9.68048,15.6037348 10.74088,15.6037348 L25.2589,15.6037348 C26.31952,15.6037348 27.17906,16.4667045 27.17906,17.530697 L27.17906,26.5174015 L27.17928,26.5174015 Z"></path>
    </symbol>
    <symbol id="washer" viewBox="0 0 36 36">
        <path d="M26.076,5.6905 L9.924,5.6905 C9.036,5.6905 8.315,6.4105 8.315,7.2985 L8.315,9.6635 L27.685,9.6635 L27.685,7.2985 C27.685,6.4105 26.964,5.6905 26.076,5.6905"></path>
        <path d="M8.315,28.7005 C8.315,29.5885 9.036,30.3095 9.924,30.3095 L26.076,30.3095 C26.964,30.3095 27.685,29.5885 27.685,28.7005 L27.685,10.7985 L8.315,10.7985 L8.315,28.7005 L8.315,28.7005 Z M18,13.1395 C22.096,13.1395 25.414,16.4595 25.414,20.5535 C25.414,24.6485 22.096,27.9675 18,27.9675 C13.904,27.9675 10.586,24.6485 10.586,20.5535 C10.586,16.4595 13.904,13.1395 18,13.1395 L18,13.1395 Z"></path>
        <path d="M21.609,22.1385 L21.609,18.9695 L23.753,18.5875 C22.935,16.1935 20.671,14.4695 18,14.4695 C14.64,14.4695 11.916,17.1935 11.916,20.5535 C11.916,23.9135 14.64,26.6375 18,26.6375 C20.671,26.6375 22.935,24.9145 23.753,22.5205 L21.609,22.1385"></path>
        <path d="M23.753,19.5875 L22.609,19.5875 L22.609,21.5205 L23.753,21.5205 L24.166,20.5535 L23.753,19.5875"></path>
    </symbol>
</svg>